<svg width="30" height="19" viewBox="0 0 30 19" fill="none" xmlns="http://www.w3.org/2000/svg">
<path d="M29.2806 12.7324H26.8901C26.8875 12.7324 26.885 12.7324 26.8824 12.7324H24.732V6.84653C24.8791 6.79544 25.0466 6.76696 25.2561 6.76696C25.6533 6.76696 25.9755 6.43829 25.9755 6.03299V4.27433C25.9755 2.25078 24.3618 0.604492 22.3784 0.604492H21.3704C16.875 0.605676 12 0.604601 8.62946 0.604492H7.62144C5.63802 0.604492 4.02438 2.25078 4.02438 4.27433V6.03299C4.02438 6.43829 4.34654 6.76696 4.74379 6.76696C4.95329 6.76696 5.12084 6.79544 5.26781 6.84653V12.7324H3.11606H3.11167H0.719411C0.32208 12.7324 0 13.061 0 13.4663C0 13.8717 0.32208 14.2003 0.719411 14.2003H2.51959L3.17627 17.5593C3.24339 17.9026 3.53871 18.1497 3.8818 18.1497H26.1182C26.4613 18.1497 26.7566 17.9026 26.8237 17.5593L27.4804 14.2003H29.2806C29.6778 14.2003 30 13.8717 30 13.4663C30 13.0611 29.6778 12.7324 29.2806 12.7324ZM5.46328 4.2744C5.46328 3.06027 6.43146 2.0725 7.62151 2.0725H22.3784C23.5685 2.0725 24.5367 3.06027 24.5367 4.2744V5.37785C23.864 5.53507 23.4406 5.89875 23.0833 6.20548C22.6895 6.54354 22.4294 6.76696 21.8371 6.76696C21.2448 6.76696 20.9846 6.54354 20.5908 6.20548C20.1205 5.80165 19.5352 5.29902 18.4181 5.29902C17.301 5.29902 16.7158 5.80165 16.2456 6.20548C15.8518 6.54354 15.5917 6.76696 14.9996 6.76696C14.4073 6.76696 14.1473 6.54354 13.7535 6.20548C13.2833 5.80165 12.6981 5.29902 11.5809 5.29902C10.4638 5.29902 9.87866 5.80165 9.40845 6.20548C9.01472 6.54354 8.75458 6.76696 8.16251 6.76696C7.57043 6.76696 7.31022 6.54354 6.91663 6.20548C6.55944 5.89875 6.13593 5.53507 5.46349 5.37793L5.46328 4.2744ZM6.70678 7.86417C7.07296 8.07556 7.53331 8.23497 8.16236 8.23497C9.27946 8.23497 9.86463 7.73235 10.3349 7.32852C10.7286 6.99038 10.9887 6.76704 11.5808 6.76704C12.173 6.76704 12.4331 6.99046 12.8269 7.32852C13.2971 7.73235 13.8823 8.23497 14.9994 8.23497C16.1165 8.23497 16.7018 7.73235 17.172 7.32852C17.5658 6.99031 17.8258 6.76704 18.4179 6.76704C19.0102 6.76704 19.2704 6.99046 19.6642 7.32852C20.1344 7.73235 20.7197 8.23497 21.8369 8.23497C22.4663 8.23497 22.9268 8.07548 23.2931 7.86395V12.7324H6.70678V7.86417ZM25.5281 16.6819H4.47186L3.98676 14.2004H26.0132L25.5281 16.6819Z" fill="#872991"/>
</svg>
