<svg width="209" height="94" viewBox="0 0 209 94" fill="none" xmlns="http://www.w3.org/2000/svg">
<path fill-rule="evenodd" clip-rule="evenodd" d="M81.5914 32.0137C83.2422 38.0723 98.0994 39.9082 105.345 40.5508C108.83 40.8262 112.865 38.1641 114.607 35.3184C116.258 32.5645 118.092 29.9024 119.835 27.1485C120.202 26.8731 120.66 26.6895 120.935 26.3223C157.436 -13.9765 74.5297 6.12697 81.5914 32.0137Z" fill="#CBE6D2"/>
<path fill-rule="evenodd" clip-rule="evenodd" d="M87.1855 5.30127C87.2772 3.55713 87.7357 1.90479 87.2772 0.160645C87.3689 0.160645 87.2772 -0.0229492 87.1855 0.0688477C87.0938 -0.0229492 86.9103 -0.0229492 86.9103 0.0688477V0.160645C85.8098 0.619629 82.5082 2.91455 82.0497 3.46533C81.4077 2.82275 76.9139 1.07861 75.7216 0.619629C75.5382 0.527832 75.4465 0.711426 75.5382 0.89502C76.2719 2.54736 76.8221 4.65869 78.0144 6.77002C75.8133 8.05518 73.062 10.3501 71.6863 12.3696C71.5946 12.5532 79.4818 11.9106 80.032 12.2778C80.4906 12.645 82.5082 19.1626 82.6916 18.979C83.7922 18.061 84.4341 15.1235 85.443 12.4614C86.7269 13.2876 90.4871 13.1958 91.5876 12.186C91.8627 12.0024 87.0938 7.3208 87.1855 5.30127Z" fill="#FDCF9D"/>
<path fill-rule="evenodd" clip-rule="evenodd" d="M123.044 35.7787C119.743 40.7357 119.101 47.0697 119.559 52.8529C122.311 51.935 125.429 52.3021 128.272 52.3021C131.665 52.3021 135.058 52.2104 138.268 51.2006C141.203 50.1908 145.147 47.8959 145.147 44.3158C145.147 42.3881 143.771 40.7357 142.304 39.5424C140.928 38.5326 139.644 38.2572 138.085 38.349C137.26 38.6244 136.342 38.8998 135.517 39.1752C135.242 39.267 135.058 38.9916 135.15 38.7162C136.159 35.6869 136.251 30.5463 132.032 29.9955C128.272 29.6283 124.787 33.1166 123.044 35.7787Z" fill="#F5ACCC"/>
<path d="M28.6743 91.0391C29.8665 91.2227 35.094 84.6133 35.5526 83.6953C35.0023 85.5312 30.6919 91.957 28.124 91.8652C27.2986 91.8652 26.6567 91.498 26.1981 90.8555C25.7396 90.2129 25.3727 89.3867 25.281 88.377C24.2722 81.125 25.0059 69.1914 28.0323 61.7559C28.3992 60.9297 28.6743 60.2871 29.0411 59.7363C29.408 59.2773 29.7748 59.002 30.2334 59.002H30.4168C30.9671 59.002 31.4256 59.3691 31.609 59.8281C31.8842 60.2871 31.8842 60.8379 31.7008 61.2969C27.8489 70.2012 28.2157 79.6563 28.0323 89.2949V89.4785C28.0323 89.7539 28.0323 90.1211 28.124 90.3965C28.2157 90.8555 28.3992 91.0391 28.6743 91.0391Z" fill="white"/>
<path d="M68.6599 91.0391C70.8609 91.0391 75.5382 86.4492 76.7304 84.7969C76.9138 84.5215 77.0055 84.4297 77.0055 84.6133C75.905 87.0918 71.4112 91.8652 68.1096 91.8652C66.9174 91.8652 66.092 91.4062 65.5417 90.4883C64.9914 89.5703 64.7163 88.377 64.7163 86.9082C64.7163 86.2656 64.808 85.4395 64.9914 84.3379C65.1749 83.2363 65.45 82.2266 65.9086 81.2168C66.3671 80.207 66.9174 79.2891 67.7428 78.5547C68.4765 77.8203 69.4853 77.4531 70.6775 77.4531C71.2278 77.4531 71.6863 77.6367 72.0532 77.9121C72.42 78.1875 72.6034 78.5547 72.7869 79.0137C72.9703 79.4727 72.9703 79.8398 72.9703 80.2988C72.9703 80.7578 72.8786 81.125 72.6951 81.4004C72.6034 81.6758 72.5117 81.7676 72.2366 81.8594C72.0532 81.9512 71.8697 81.9512 71.6863 81.8594C71.5029 81.7676 71.3195 81.6758 71.2278 81.4922C71.1361 81.3086 71.1361 81.125 71.2278 80.9414C71.3195 80.666 71.4112 80.3906 71.5029 80.1152C71.5946 79.748 71.5946 79.4727 71.5946 79.1973C71.5946 78.9219 71.5029 78.6465 71.4112 78.4629C71.3195 78.2793 71.1361 78.0957 70.8609 78.0957C70.5858 78.0957 70.3107 78.3711 69.9438 78.9219C69.577 79.4727 69.2101 80.207 68.8433 81.0332C68.4764 81.8594 68.2013 82.8691 67.9262 83.9707C67.6511 85.0723 67.5593 86.1738 67.5593 87.2754C67.5593 87.5508 67.5593 87.8262 67.5593 88.1934C67.5593 88.5605 67.6511 89.0195 67.6511 89.3867C67.7428 89.7539 67.8345 90.1211 67.9262 90.4883C68.2013 90.8555 68.3847 91.0391 68.6599 91.0391Z" fill="white"/>
<path d="M89.5698 89.2949C89.845 89.2949 90.4869 89.0195 90.9455 88.5605C92.5046 86.9082 93.0548 84.9805 94.4305 83.2363C93.8802 85.0723 92.1377 88.8359 90.3035 89.8457C89.9367 90.0293 89.5698 90.1211 89.1113 90.1211C88.2859 90.1211 87.6439 89.7539 87.1854 89.2031C86.7268 88.5605 86.4517 87.8262 86.2682 86.9082C86.0848 85.9902 85.9931 84.8887 85.9931 83.6953C85.9931 82.502 85.9931 81.3086 85.9931 80.207C85.5346 81.125 85.076 82.043 84.5257 82.9609C83.9755 83.9707 83.4252 84.7969 82.7832 85.7148C82.1413 86.541 81.4993 87.2754 80.8573 87.8262C80.2153 88.377 79.5734 88.6523 78.9314 88.6523C77.7391 88.6523 76.9137 88.1934 76.3635 87.2754C75.8132 86.3574 75.5381 85.1641 75.5381 83.6953C75.5381 83.0527 75.6298 82.3184 75.8132 81.4004C75.9966 80.4824 76.2718 79.6563 76.7303 78.8301C77.1889 78.0039 77.7391 77.2695 78.5645 76.7188C79.2982 76.168 80.307 75.8926 81.4993 75.8926C82.6915 75.8926 83.4252 76.168 83.7921 76.7188C84.1589 77.2695 84.5257 77.9121 84.8009 78.5547C84.8926 78.8301 84.8926 79.0137 84.8009 79.1055C84.7092 79.2891 84.6174 79.3809 84.434 79.4727C84.2506 79.5645 84.0672 79.5645 83.8838 79.4727C83.7003 79.3809 83.5169 79.2891 83.4252 79.1055C83.3335 78.9219 83.2418 78.6465 83.1501 78.3711C83.0584 78.0957 82.9667 77.8203 82.8749 77.5449C82.7832 77.2695 82.5998 76.9941 82.5081 76.8105C82.3247 76.627 82.1413 76.5352 81.8661 76.5352C81.591 76.5352 81.3159 76.7188 80.949 77.0859C80.5822 77.4531 80.2153 78.0039 79.8485 78.6465C79.4816 79.2891 79.2065 80.1152 78.9314 81.0332C78.6562 81.9512 78.5645 82.9609 78.5645 83.9707C78.5645 84.2461 78.5645 84.5215 78.5645 84.8887C78.5645 85.2559 78.6563 85.7148 78.748 86.082C78.8397 86.4492 78.9314 86.8164 79.1148 87.0918C79.2982 87.3672 79.4816 87.5508 79.6651 87.5508C80.1236 87.5508 80.6739 87.0918 81.3159 86.1738C81.9578 85.2559 82.5998 84.1543 83.2418 82.8691C83.8838 81.584 84.5257 80.3906 85.076 79.2891C85.6263 78.0957 85.9931 77.3613 86.2682 76.9941C86.4517 76.627 86.6351 76.4434 87.0019 76.2598C87.3688 76.168 87.6439 76.0762 88.0107 76.2598C88.3776 76.3516 88.6527 76.5352 88.8361 76.8105C89.1113 77.0859 89.203 77.3613 89.203 77.7285L89.0196 87.6426C89.0196 87.918 89.0196 88.2852 89.1113 88.6523C89.0196 89.1113 89.203 89.2949 89.5698 89.2949Z" fill="white"/>
<path d="M101.492 86.541C101.859 86.541 102.318 86.3574 102.776 85.9902C103.235 85.623 103.693 85.0723 104.152 84.5215C104.611 83.9707 105.069 83.3281 105.528 82.5937C105.986 81.9512 106.353 81.3086 106.72 80.7578C107.087 80.207 107.362 79.8398 107.545 79.4727C107.729 79.1055 107.82 79.0137 107.82 79.1973C107.178 80.7578 106.537 82.043 105.803 83.2363C105.161 84.2461 104.427 85.1641 103.602 85.9902C102.776 86.8164 101.859 87.2754 100.942 87.1836C100.575 87.1836 100.117 87 99.7499 86.7246C99.2914 86.4492 98.9245 86.082 98.5577 85.623C98.1908 85.1641 97.824 84.6133 97.4572 84.0625C97.0903 83.5117 96.8152 82.9609 96.6318 82.4102C96.54 83.1445 96.54 83.9707 96.54 84.7051C96.54 85.7148 96.1732 89.0195 96.9069 89.8457C95.0727 90.2129 93.9721 87.2754 93.697 86.082C93.6053 85.5313 93.4219 84.9805 93.4219 84.4297C93.4219 76.9023 94.1556 72.0371 95.3478 66.6211C95.5312 65.7949 96.2649 65.5195 96.8152 65.5195H96.9986C97.5489 65.5195 98.0074 65.8867 98.1908 66.3457C98.466 66.8047 98.3743 67.2637 98.2825 67.8145C97.7323 70.1094 96.8152 74.6992 96.7235 79.0137C97.182 78.1875 97.7323 77.4531 98.3743 76.7187C99.0162 75.9844 99.8416 75.6172 100.667 75.6172C101.492 75.6172 102.043 75.9844 102.501 76.5352C102.868 77.1777 103.143 77.9121 103.143 78.7383C103.143 79.1055 103.052 79.3809 102.868 79.5644C102.685 79.748 102.41 79.9316 102.226 80.0234C102.043 80.1152 101.768 80.0234 101.584 79.9316C101.401 79.748 101.309 79.4727 101.309 79.0137C101.309 78.7383 101.309 78.5547 101.309 78.1875C101.309 77.9121 101.309 77.5449 101.217 77.2695C101.126 76.9941 101.126 76.7188 100.942 76.5352C100.85 76.3516 100.759 76.2598 100.575 76.2598C100.208 76.2598 99.8416 76.4434 99.4748 76.9023C99.1079 77.3613 98.7411 77.8203 98.3743 78.3711C98.0074 78.9219 97.7323 79.4727 97.5489 80.0234C97.2737 80.5742 97.182 80.9414 97.0903 81.2168C97.3654 81.6758 97.7323 82.1348 98.0991 82.7773C98.466 83.4199 98.9245 83.9707 99.3831 84.5215C99.8416 85.0723 100.208 85.5312 100.667 85.8984C101.034 86.3574 101.309 86.541 101.492 86.541Z" fill="white"/>
<path d="M109.104 89.6621C111.58 89.8457 114.607 84.1543 115.524 82.4102C115.707 82.043 115.799 82.3184 115.799 82.4102C114.79 84.9805 112.039 90.5801 108.646 90.4883C107.453 90.4883 106.628 90.0293 106.078 89.1113C105.528 88.1934 105.252 87 105.252 85.5312C105.252 84.8887 105.344 84.1543 105.436 83.2363C105.528 82.3184 105.803 81.4004 106.261 80.4824C106.72 79.5645 107.27 78.8301 108.004 78.1875C108.737 77.5449 109.746 77.2695 110.939 77.2695C111.856 77.2695 112.498 77.5449 112.773 78.0039C113.048 78.4629 113.231 79.1055 113.231 79.8398C113.231 80.3906 113.048 81.0332 112.773 81.6758C112.131 83.0527 111.122 84.2461 110.021 85.2559C109.379 85.8066 108.737 86.1738 108.095 86.541C108.095 86.8164 108.095 87.1836 108.095 87.5508C108.095 87.918 108.187 88.2852 108.279 88.5605C108.371 88.8359 108.462 89.1113 108.554 89.3867C108.737 89.5703 108.829 89.6621 109.104 89.6621ZM111.03 78.0039C110.755 78.0039 110.48 78.1875 110.205 78.6465C109.838 79.1055 109.563 79.6563 109.288 80.2988C109.013 81.0332 108.737 81.8594 108.462 82.7773C108.187 83.6953 108.095 84.7051 108.095 85.8066C108.462 85.4395 108.921 85.0723 109.379 84.5215C109.838 83.9707 110.205 83.4199 110.663 82.8691C111.122 82.3184 111.397 81.6758 111.58 81.0332C111.856 80.3906 111.947 79.8398 111.947 79.2891C111.947 78.7383 111.856 78.3711 111.764 78.2793C111.58 78.0039 111.305 78.0039 111.03 78.0039Z" fill="white"/>
<path d="M127.813 86.083C129.097 85.7158 131.94 85.3486 132.857 85.3486C133.774 85.3486 134.233 85.4404 134.233 85.7158C133.774 85.7158 133.316 85.8076 132.857 85.8994C132.399 85.9912 130.198 86.1748 129.739 86.2666C129.189 86.3584 128.638 86.4502 128.088 86.6338C128.363 87.1846 128.455 87.6436 128.455 88.1025C128.455 89.0205 128.272 89.8467 127.905 90.5811C127.538 91.3154 127.079 91.958 126.621 92.417C126.071 92.9678 125.52 93.335 124.878 93.6104C124.236 93.8857 123.686 93.9775 123.136 93.9775C122.586 93.9775 122.127 93.8857 121.852 93.7022C121.577 93.5186 121.393 93.2432 121.302 92.9678C121.118 92.6924 121.118 92.3252 121.118 91.958C121.118 90.8564 121.577 89.9385 122.402 89.1123C123.228 88.2861 124.145 87.6436 125.337 87.0928C125.062 86.542 124.695 86.083 124.236 85.4404C123.869 84.8897 123.411 84.3389 123.136 83.6963C122.769 83.1455 122.494 82.5029 122.219 81.9522C121.944 81.4014 121.852 80.8506 121.852 80.3916C121.852 79.3818 122.127 78.5557 122.494 78.0049C122.861 77.4541 123.411 77.0869 123.961 76.9033C124.511 76.7197 125.153 76.5361 125.795 76.6279C126.437 76.6279 126.988 76.6279 127.446 76.6279C127.721 76.6279 127.996 76.6279 128.363 76.7197C128.638 76.7197 129.005 76.8115 129.28 76.9033C129.556 76.9951 129.831 77.1787 130.014 77.3623C130.198 77.5459 130.289 77.7295 130.289 78.0049V78.0967C130.198 78.5557 130.014 78.8311 129.739 78.8311C129.372 78.9229 129.097 78.7393 128.914 78.2803C128.822 78.0967 128.638 77.9131 128.547 77.6377C128.455 77.3623 128.272 77.2705 128.088 77.2705C127.996 77.2705 127.721 77.2705 127.354 77.2705C126.988 77.2705 126.713 77.3623 126.346 77.4541C125.979 77.6377 125.704 77.9131 125.429 78.4639C125.153 78.9229 125.062 79.6572 124.97 80.667C124.97 81.126 125.062 81.4932 125.245 82.044C125.429 82.5029 125.704 82.9619 125.979 83.5127C126.254 83.9717 126.621 84.4307 126.896 84.9814C127.171 85.2568 127.538 85.624 127.813 86.083ZM126.071 89.0205C126.071 88.6533 125.887 88.1943 125.612 87.6436C124.787 88.1025 124.145 88.6533 123.503 89.3877C122.952 90.1221 122.677 90.9482 122.586 91.958C122.586 92.2334 122.586 92.6006 122.677 92.876C122.769 93.1514 122.952 93.335 123.411 93.335C124.053 93.335 124.603 92.9678 125.153 92.1416C125.795 91.2236 126.071 90.2139 126.071 89.0205Z" fill="white"/>
<path d="M135.976 88.9277C138.177 88.9277 142.029 84.2461 143.221 82.6855C143.404 82.4102 143.496 82.3184 143.496 82.502C142.396 84.9805 138.727 89.8457 135.426 89.7539C134.233 89.7539 133.408 89.2949 132.858 88.377C132.307 87.459 132.032 86.2656 132.032 84.7969C132.032 84.1543 132.124 83.3281 132.307 82.2266C132.491 81.125 132.766 80.1152 133.224 79.1055C133.683 78.0957 134.233 77.1777 135.059 76.4434C135.792 75.709 136.801 75.3418 137.993 75.3418C138.544 75.3418 139.002 75.5254 139.369 75.8008C139.736 76.0762 139.919 76.4434 140.103 76.9023C140.286 77.3613 140.286 77.7285 140.286 78.1875C140.286 78.6465 140.194 79.0137 140.011 79.2891C139.919 79.5645 139.828 79.6563 139.553 79.748C139.369 79.8398 139.186 79.8398 139.002 79.748C138.819 79.6563 138.635 79.5645 138.544 79.3809C138.452 79.1973 138.452 79.0137 138.544 78.8301C138.635 78.5547 138.727 78.2793 138.819 78.0039C138.911 77.6367 138.911 77.3613 138.911 77.0859C138.911 76.8105 138.819 76.5352 138.727 76.3516C138.635 76.168 138.452 75.9844 138.085 75.9844C137.81 75.9844 137.535 76.2598 137.168 76.8105C136.801 77.3613 136.434 78.0957 136.068 78.9219C135.701 79.748 135.426 80.7578 135.15 81.8594C134.875 82.9609 134.784 84.0625 134.784 85.1641C134.784 85.4395 134.784 85.7148 134.784 86.082C134.784 86.4492 134.875 86.9082 134.875 87.2754C134.967 87.6426 135.059 88.0098 135.15 88.377C135.517 88.8359 135.701 88.9277 135.976 88.9277Z" fill="white"/>
<path d="M154.409 91.4062C154.684 91.4062 154.959 91.2227 155.418 90.7637C155.877 90.3047 156.243 89.8457 156.702 89.2949C157.16 88.6523 157.619 87.918 158.169 87.0918C157.986 87.8262 157.711 88.4687 157.436 89.1113C157.16 89.6621 156.885 90.2129 156.427 90.7637C156.06 91.3145 155.51 91.6816 155.051 91.957C154.684 92.1406 154.317 92.2324 153.859 92.2324C153.034 92.2324 152.483 91.957 152.025 91.4062C151.566 90.8555 151.291 90.1211 151.108 89.2031C150.924 88.2852 150.832 87.2754 150.741 86.1738C150.741 85.0723 150.741 83.8789 150.741 82.7773C150.466 83.6953 150.19 84.6133 149.915 85.6231C149.64 86.6328 149.273 87.6426 148.815 88.5605C148.448 89.4785 147.989 90.3047 147.531 90.9473C147.072 91.5898 146.614 92.0488 146.155 92.1406C146.063 92.1406 145.972 92.1406 145.972 92.1406C145.972 92.1406 145.88 92.1406 145.788 92.1406C144.78 92.1406 144.046 91.6816 143.587 90.8555C143.129 90.0293 142.67 88.9277 142.67 87.7344C142.578 81.125 142.578 75.3418 144.963 69.2832C145.33 68.457 145.788 68.0898 146.155 68.0898H146.339C146.889 68.0898 147.347 68.457 147.531 68.916C147.714 69.375 147.806 69.9258 147.623 70.3848C145.422 77.1777 145.88 81.2168 145.697 88.4688C145.697 88.9277 145.788 89.4785 145.788 89.8457C145.88 90.3047 145.88 90.6719 145.972 90.9473C146.063 91.2227 146.155 91.4062 146.339 91.4062H146.43C146.705 91.3145 146.889 90.6719 147.164 89.6621C147.439 88.5605 147.714 87.3672 148.081 85.9902C148.448 84.6133 148.815 83.2363 149.273 81.9512C149.732 80.666 150.282 79.6562 151.016 79.0137C151.199 78.7383 151.474 78.5547 151.841 78.4629C152.208 78.3711 152.483 78.3711 152.758 78.4629C153.034 78.5547 153.309 78.7383 153.492 79.0137C153.675 79.2891 153.859 79.5645 153.767 79.9316L153.584 89.8457C153.584 90.1211 153.584 90.4883 153.675 90.8555C153.859 91.2227 154.042 91.4062 154.409 91.4062Z" fill="white"/>
<path d="M166.149 81.3086C166.607 81.3086 167.066 81.3086 167.616 81.4004C168.166 81.4922 168.625 81.4922 169.175 81.584C169.725 81.6758 170.275 81.6758 170.917 81.7676C170.459 81.8594 169.909 81.9512 169.45 82.043C168.533 82.2266 167.432 82.3184 166.057 82.3184C165.965 83.2363 165.69 84.0625 165.415 84.9805C165.14 85.8984 164.681 86.7246 164.223 87.459C163.764 88.1934 163.122 88.8359 162.48 89.2949C161.838 89.7539 161.104 90.0293 160.279 89.9375C159.087 89.9375 158.261 89.4785 157.711 88.5605C157.161 87.6426 156.886 86.4492 156.886 84.9805C156.886 84.3379 156.977 83.6035 157.161 82.6855C157.344 81.7676 157.619 80.8496 158.078 80.0234C158.537 79.1973 159.087 78.4629 159.912 77.9121C160.646 77.3613 161.655 77.0859 162.847 77.0859C164.039 77.0859 164.865 77.5449 165.415 78.2793C165.965 79.0137 166.24 79.8398 166.149 80.5742V81.3086ZM160.921 88.9277C161.288 88.9277 161.655 88.7441 162.113 88.377C162.48 88.0098 162.939 87.459 163.214 86.8164C163.581 86.1738 163.856 85.4395 164.223 84.7051C164.498 83.8789 164.773 83.1445 164.956 82.4102H164.865V82.3184C164.773 82.3184 164.589 82.2266 164.498 82.043C164.406 81.8594 164.314 81.4922 164.314 81.0332C164.314 80.5742 164.223 80.1152 164.131 79.6563C164.039 79.1973 163.947 78.7383 163.856 78.3711C163.764 78.0039 163.489 77.8203 163.214 77.8203C162.939 77.8203 162.664 78.0039 162.297 78.3711C161.93 78.7383 161.563 79.2891 161.196 79.9316C160.829 80.5742 160.554 81.4004 160.279 82.3184C160.004 83.2363 159.912 84.2461 159.912 85.3477C159.912 85.623 159.912 85.8984 159.912 86.2656C159.912 86.6328 160.004 87.0918 160.096 87.459C160.187 87.8262 160.279 88.1934 160.462 88.4687C160.462 88.8359 160.738 88.9277 160.921 88.9277Z" fill="white"/>
<path d="M177.153 82.502C177.612 82.502 178.071 82.5019 178.621 82.5937C179.171 82.6855 179.63 82.6855 180.18 82.7773C180.73 82.8691 181.28 82.8691 181.922 82.9609C181.464 83.0527 180.914 83.1445 180.455 83.2363C179.538 83.4199 178.437 83.5117 177.062 83.5117C176.97 84.4297 176.695 85.2559 176.42 86.1738C176.145 87.0918 175.686 87.918 175.227 88.6523C174.769 89.3867 174.127 90.0293 173.485 90.4883C172.843 90.9473 172.109 91.2227 171.284 91.1309C170.092 91.1309 169.266 90.6719 168.716 89.7539C168.166 88.8359 167.891 87.6426 167.891 86.1738C167.891 85.5312 167.982 84.7969 168.166 83.8789C168.349 82.9609 168.624 82.043 169.083 81.2168C169.541 80.3906 170.092 79.6562 170.917 79.1055C171.651 78.5547 172.66 78.2793 173.852 78.2793C175.044 78.2793 175.869 78.7383 176.42 79.4727C176.97 80.207 177.245 81.0332 177.153 81.7676V82.502ZM171.926 90.1211C172.293 90.1211 172.66 89.9375 173.118 89.5703C173.485 89.2031 173.944 88.6523 174.219 88.0098C174.585 87.3672 174.861 86.6328 175.227 85.8984C175.503 85.0723 175.778 84.3379 175.961 83.6035H175.869V83.5117C175.778 83.5117 175.594 83.4199 175.503 83.2363C175.411 83.0527 175.319 82.6855 175.319 82.2266C175.319 81.7676 175.227 81.3086 175.136 80.8496C175.044 80.3906 174.952 79.9316 174.861 79.5644C174.769 79.1973 174.494 79.0137 174.219 79.0137C173.944 79.0137 173.668 79.1973 173.302 79.5644C172.935 79.9316 172.568 80.4824 172.201 81.125C171.834 81.7676 171.559 82.5937 171.284 83.5117C171.009 84.4297 170.917 85.4395 170.917 86.541C170.917 86.8164 170.917 87.0918 170.917 87.459C170.917 87.8262 171.009 88.2852 171.1 88.6523C171.192 89.0195 171.284 89.3867 171.467 89.6621C171.467 89.9375 171.651 90.0293 171.926 90.1211Z" fill="white"/>
<path d="M190.085 90.3969C188.984 91.4985 187.425 93.7016 185.224 93.4262C175.961 93.2426 177.795 64.8774 187.15 63.8676C187.7 63.7758 188.25 63.9594 188.526 64.2348C192.194 67.6313 184.123 76.7192 182.106 80.1157V80.9418C182.106 82.5942 183.115 92.7836 185.683 92.7836C187.7 93.059 189.993 90.5805 190.085 90.3969ZM186.416 64.7856C183.94 66.0708 182.198 75.434 182.381 78.0961C187.7 69.3754 190.818 62.6743 186.416 64.7856Z" fill="white"/>
<path d="M45.7324 92.416C46.0075 92.416 46.2827 92.2324 46.7412 91.7734C47.1998 91.3145 47.5666 90.8555 48.0252 90.3047C48.4837 89.6621 48.9423 88.9277 49.4925 88.1016C49.3091 88.8359 49.034 89.4785 48.7589 90.1211C48.4837 90.6719 48.2086 91.2227 47.75 91.7734C47.3832 92.3242 46.8329 92.6914 46.3744 92.9668C46.0075 93.1504 45.6407 93.2422 45.1821 93.2422C44.3567 93.2422 43.8065 92.9668 43.3479 92.416C42.8894 91.8652 42.6142 91.1309 42.4308 90.2129C42.2474 89.2949 42.1557 88.2852 42.064 87.1836C42.064 86.082 42.064 84.8887 42.064 83.7871C41.7888 84.7051 41.5137 85.6231 41.2386 86.6328C40.9634 87.6426 40.5966 88.6523 40.1381 89.5703C39.7712 90.4883 39.3127 91.3145 38.8541 91.957C38.3955 92.5996 37.937 93.0586 37.4784 93.1504C37.3867 93.1504 37.295 93.1504 37.295 93.1504C37.295 93.1504 37.2033 93.1504 37.1116 93.1504C36.1028 93.1504 35.3691 92.6914 34.9105 91.8652C34.452 91.0391 33.9934 89.9375 33.9934 88.6523C33.9017 82.043 33.9017 76.2598 36.2862 70.2012C36.653 69.375 37.1116 69.0078 37.4784 69.0078H37.6619C38.2121 69.0078 38.6707 69.375 38.8541 69.834C39.1292 70.293 39.1292 70.8437 38.9458 71.3027C36.7448 78.0957 37.2033 82.1348 37.0199 89.3867C37.0199 89.8457 37.1116 90.3965 37.1116 90.7637C37.2033 91.2227 37.2033 91.5898 37.295 91.8652C37.3867 92.1406 37.4784 92.3242 37.6619 92.3242H37.7536C38.0287 92.2324 38.2121 91.5898 38.4873 90.5801C38.7624 89.4785 39.0375 88.2852 39.4044 86.9082C39.7712 85.5312 40.1381 84.1543 40.5966 82.8691C41.0552 81.584 41.6054 80.5742 42.3391 79.9316C42.5225 79.6563 42.7977 79.4727 43.1645 79.3809C43.5313 79.2891 43.8065 79.2891 44.0816 79.3809C44.3567 79.4727 44.6319 79.6563 44.8153 79.9316C44.9987 80.207 45.1821 80.4824 45.0904 80.8496L44.907 90.7637C44.907 91.0391 44.907 91.4063 44.9987 91.7734C45.1821 92.2324 45.3656 92.416 45.7324 92.416Z" fill="white"/>
<path d="M52.9773 90.9473C55.4535 91.1309 58.48 85.4395 59.3971 83.6953C59.5805 83.3281 59.6722 83.6035 59.6722 83.6953C58.6634 86.2656 55.9121 91.8652 52.5188 91.7734C51.3265 91.7734 50.5012 91.3145 49.9509 90.3965C49.4006 89.4785 49.1255 88.2852 49.1255 86.8164C49.1255 86.1738 49.2172 85.4395 49.3089 84.5215C49.4006 83.6035 49.6758 82.6855 50.1343 81.7676C50.5929 80.8496 51.1431 80.1152 51.8768 79.4727C52.6105 78.8301 53.6193 78.5547 54.8116 78.5547C55.7287 78.5547 56.3706 78.8301 56.6458 79.2891C56.9209 79.748 57.1043 80.3906 57.1043 81.125C57.1043 81.6758 56.9209 82.3184 56.6458 82.9609C56.0038 84.3379 54.995 85.5313 53.8944 86.541C53.2525 87.0918 52.6105 87.459 51.9685 87.8262C51.9685 88.1016 51.9685 88.4688 51.9685 88.8359C51.9685 89.2031 52.0602 89.5703 52.1519 89.8457C52.2437 90.1211 52.3354 90.3965 52.4271 90.6719C52.6105 90.7637 52.7939 90.9473 52.9773 90.9473ZM54.9033 79.1973C54.6281 79.1973 54.353 79.3809 54.0779 79.8398C53.711 80.2988 53.4359 80.8496 53.1608 81.4922C52.8856 82.2266 52.6105 83.0527 52.3354 83.9707C52.0602 84.8887 51.9685 85.8984 51.9685 87C52.3354 86.6328 52.7939 86.2656 53.2525 85.7148C53.711 85.1641 54.0779 84.6133 54.5364 84.0625C54.9033 83.5117 55.2701 82.8691 55.4535 82.2266C55.7287 81.584 55.8204 81.0332 55.8204 80.4824C55.8204 79.9316 55.7287 79.5645 55.637 79.4727C55.4535 79.2891 55.1784 79.1973 54.9033 79.1973Z" fill="white"/>
<path d="M0.427084 78.831C0.335373 78.9228 0.243662 79.1064 0.151951 79.0146C-0.0314702 78.831 -0.0314702 78.6474 0.0602406 78.5556C0.977348 77.2704 1.98617 76.0771 3.54525 75.0673C12.0743 69.6513 24.3636 75.5263 33.9932 68.2744C34.0849 68.1826 34.2684 68.2744 34.3601 68.3661C34.4518 68.5497 34.4518 68.7333 34.3601 68.8251C24.9139 77.2704 12.5329 71.579 3.72867 75.4345C2.2613 76.2607 1.34419 77.6376 0.427084 78.831Z" fill="white"/>
<path d="M184.491 93.2422C184.307 93.2422 184.216 93.0586 184.307 92.875C184.307 92.6914 184.491 92.5996 184.674 92.6914C188.434 93.6094 190.452 88.3769 191.736 85.5312C191.553 85.4395 191.369 85.2559 191.186 85.0723C190.452 84.4297 190.085 83.6035 189.718 82.5938C189.352 81.4922 189.535 80.666 189.994 80.1152C190.36 79.7481 191.002 79.5645 191.553 79.5645C194.854 79.748 193.295 83.4199 192.561 85.1641C194.487 86.082 196.597 85.1641 198.614 85.0723C202.099 84.9805 205.493 85.3477 207.969 88.1016C208.061 88.1934 208.061 88.377 207.969 88.5605C207.877 88.6523 207.694 88.6523 207.51 88.5605C205.126 86.082 201.916 86.1738 198.614 86.3574C197.147 86.4492 195.588 86.4492 194.212 86.2656C193.479 86.1738 192.837 85.9902 192.378 85.8066C190.727 88.9277 188.618 94.2519 184.491 93.2422ZM191.919 84.9805C193.112 81.7676 192.103 80.0234 191.369 80.1152C190.177 80.207 189.26 81.8594 191.553 84.7051C191.644 84.7969 191.828 84.8887 191.919 84.9805Z" fill="white"/>
<path fill-rule="evenodd" clip-rule="evenodd" d="M62.6987 39.633C62.2402 37.4299 62.8822 35.4104 64.3495 33.758C67.2843 30.6369 72.4201 29.6272 76.4554 28.8928C80.7658 28.1584 85.2596 27.883 89.6617 27.883C91.1291 27.883 92.6882 28.0666 94.2472 28.1584C87.5524 28.801 80.7658 30.0862 74.5294 32.3811C72.5118 33.1155 70.4942 34.0334 68.5682 35.0432C67.1926 35.7776 65.8169 36.6037 64.9915 37.8889C64.0744 39.2658 63.7993 41.1018 64.1661 42.7541C63.5241 41.8362 62.9739 40.9182 62.6987 39.633ZM64.8998 42.9377C64.2578 40.1838 65.4501 37.7053 68.2014 36.053C71.503 34.217 75.0797 32.8401 78.6564 31.8303C83.3337 30.4533 88.1943 29.8108 92.9633 29.26C88.286 30.6369 83.7922 32.6565 79.2984 34.4924C75.8134 35.9612 71.9615 37.2463 68.6599 39.174C67.1926 40.0002 65.5418 41.3772 64.9915 43.0295C64.9915 42.9377 64.9915 42.9377 64.8998 42.9377ZM96.0815 29.26C94.5224 30.0862 92.9633 30.9123 91.4042 31.6467L82.7834 36.1447C79.9404 37.6135 77.0056 39.174 74.1626 40.6428C72.6035 41.469 71.0444 42.2033 69.4853 43.0295C68.2931 43.6721 66.9174 44.2229 65.8169 45.049C65.7252 44.7737 65.6335 44.4983 65.5418 44.1311C66.092 40.6428 70.0356 39.3576 72.8786 38.0725C75.9051 36.6955 78.9315 35.4104 81.958 34.1252C84.8927 32.8401 87.9192 31.5549 90.9456 30.5451C92.6881 29.9944 94.5224 29.5354 96.2649 29.1682C96.3566 29.1682 96.2649 29.26 96.0815 29.26ZM99.2913 28.7092C97.0903 30.6369 94.8892 32.6565 92.5964 34.4924C89.7534 36.7873 86.9104 38.9905 83.9756 41.01C81.1326 42.9377 78.2896 44.4983 75.0797 45.508C72.3284 46.3342 69.3936 47.344 66.4589 46.7014C66.3672 46.426 66.2755 46.2424 66.1837 45.967C67.5594 45.5998 68.8434 44.7737 70.1273 44.1311C71.6864 43.3049 73.1538 42.4787 74.7128 41.6526C77.5559 40.1838 80.4906 38.6233 83.3337 37.1545C86.1767 35.6858 89.1114 34.1252 91.9545 32.6565C93.5136 31.8303 95.0726 31.0041 96.6317 30.2697C97.4571 29.6272 98.4659 29.26 99.2913 28.7092ZM85.6264 42.9377C82.9668 44.6819 80.0321 46.1506 77.0056 47.0686C73.9792 47.9865 70.219 48.9045 67.1926 47.6194C67.1009 47.5276 67.1009 47.4358 67.0091 47.344C69.3936 47.7112 71.6864 47.1604 74.0709 46.5178C77.3725 45.5998 80.3989 44.3147 83.3337 42.3869C86.3601 40.3674 89.2949 38.1643 92.0462 35.8694C93.9721 34.217 95.9897 32.6565 97.9157 30.8205C94.2472 35.4104 90.4871 39.7248 85.6264 42.9377ZM93.697 37.7971C91.0374 40.7346 87.9192 43.2131 84.7093 45.508C81.4077 47.8947 77.831 50.2815 73.704 50.3733C71.8698 50.3733 69.9439 49.9143 68.4765 48.9045C70.6776 49.3635 73.2455 48.8127 75.2631 48.3537C78.7481 47.6194 82.1414 46.1506 85.1679 44.1311C89.6617 41.2854 93.6053 37.4299 96.9986 33.2072C96.0815 34.8596 94.9809 36.4201 93.697 37.7971ZM108.187 24.303C108.829 24.1194 109.471 23.6604 110.021 23.2932C110.113 23.2932 110.113 23.2014 110.205 23.1096C110.847 22.8342 111.397 22.5588 112.039 22.2834C113.231 21.7326 114.332 21.1819 115.524 20.6311C115.616 20.6311 115.708 20.6311 115.708 20.6311C118 19.7131 120.293 18.5197 122.402 17.2346C123.32 16.7756 124.145 16.4084 125.062 15.9494C126.621 15.1233 128.18 14.3889 129.831 13.5627C129.739 13.5627 129.739 13.6545 129.648 13.6545C122.678 17.7854 115.157 20.7229 108.096 24.4865C108.004 24.3947 108.004 24.303 107.912 24.2112C108.004 24.3947 108.096 24.3947 108.187 24.303ZM126.988 9.43186C127.813 8.97287 128.73 8.51389 129.556 8.05491L129.464 8.1467C128.455 8.78928 127.447 9.43186 126.438 9.98264C125.796 10.258 125.154 10.5334 124.42 10.8088C125.337 10.3498 126.163 9.89084 126.988 9.43186ZM133.683 12.3694C134.967 11.635 136.159 10.8088 137.443 10.0744C138.085 9.70725 138.727 9.34006 139.277 8.88108C139.461 8.78928 141.662 7.22873 142.212 7.59592V7.68772C142.12 7.77951 142.12 7.87131 142.029 7.87131C141.845 7.77952 141.662 7.77952 141.478 7.87131C138.085 10.5334 134.325 12.4612 130.381 14.2053C131.574 13.7463 132.674 13.1037 133.683 12.3694ZM108.462 25.4963C109.655 24.9455 110.847 24.3947 112.039 23.844C110.847 24.4865 109.746 25.1291 108.462 25.6799C108.554 25.5881 108.462 25.5881 108.462 25.4963ZM64.7164 44.5901C64.8998 47.344 67.4677 49.9143 69.9439 50.8322C73.8875 52.2092 78.1061 50.8322 81.4994 48.8127C85.6264 46.3342 89.3866 42.9377 92.9633 39.7248C95.6229 37.2463 99.0162 33.2072 99.8416 29.8108C99.9333 29.4436 100.025 28.6174 100.025 28.6174C103.51 26.7815 106.903 24.7619 107.178 25.2209C107.362 25.5881 108.279 27.6994 108.554 27.5158C108.646 27.5158 140.286 10.9924 142.12 9.34006C142.671 9.06467 143.037 8.60569 143.312 8.1467C143.312 8.1467 143.312 8.1467 143.404 8.05491C143.496 7.96311 143.496 7.87131 143.496 7.77951C143.771 7.04514 143.312 5.48459 143.312 5.48459C143.129 4.65842 141.937 3.00608 141.753 2.91428C140.836 2.54709 140.286 2.4553 138.727 2.91428C136.526 3.55686 104.794 20.6311 105.069 21.0901C105.436 21.8244 106.353 23.4768 106.353 23.4768C103.785 24.7619 101.951 25.6799 99.383 26.8733C96.6317 26.2307 94.6141 26.5979 93.055 26.7815C91.771 26.9651 90.6705 27.1487 89.3866 27.1487C83.0585 27.3322 76.5471 27.6076 70.4942 29.6272C67.1009 30.7287 62.9739 32.5647 61.965 36.4201C61.1397 39.174 62.4236 42.7541 64.7164 44.5901Z" fill="white"/>
<path fill-rule="evenodd" clip-rule="evenodd" d="M90.7618 11.4522C89.6613 12.6455 88.2856 12.4619 86.268 12.5537C86.3597 12.1865 86.3597 11.9111 86.3597 11.5439C86.3597 11.4522 86.1763 11.3604 86.1763 11.4522C85.8095 12.1865 85.626 13.0127 85.3509 13.8389C84.9841 14.665 84.6172 15.3994 84.1587 16.2256C82.8747 15.3076 82.2327 13.2881 82.141 12.3701C82.0493 11.4522 77.7389 11.7275 77.0052 11.5439C77.3721 11.2686 77.6472 10.9014 78.014 10.4424C78.656 9.79981 79.298 8.97363 79.7566 8.14746C79.6648 8.33106 79.7566 8.42285 79.7566 8.60645C79.8483 8.88184 80.2151 8.60645 80.1234 8.42285C79.7566 7.50489 79.3897 6.58692 79.1146 5.66895C78.9312 4.93457 78.5643 3.92481 78.656 3.19043C79.7566 3.46582 82.141 4.56739 83.1498 5.02637C83.8835 5.30176 85.3509 3.92481 85.9012 3.55762C86.5431 3.09864 87.2768 2.63965 87.9188 2.18067C87.9188 3.19043 88.1939 4.2002 87.9188 5.20996C87.552 6.77051 87.0934 7.78028 87.1851 7.50489C87.552 8.79004 89.9364 10.3506 91.037 11.1768C91.1287 11.1768 90.8535 11.4522 90.7618 11.4522ZM88.9276 12.6455C89.4779 12.3701 90.0282 12.0947 90.5784 11.7275C90.1199 12.0947 89.4779 12.3701 88.9276 12.6455ZM88.1939 7.1377C88.3774 6.67871 88.6525 3.09864 88.2857 1.99707C88.2857 1.81348 88.1939 1.62989 88.0105 1.72168C88.0105 1.72168 87.9188 1.72168 87.8271 1.72168C86.91 1.90528 83.3333 4.1084 83.2416 4.2002C81.8659 3.46582 78.7477 2.73145 78.656 2.73145L78.5643 2.82324C78.4726 2.82324 78.4726 2.82324 78.4726 2.91504C78.4726 2.91504 78.2892 4.47559 78.3809 5.20996C78.4726 5.85254 78.8394 7.50488 78.8394 7.68848C77.7389 8.69824 76.7301 10.3506 75.9047 11.5439C75.813 11.7275 76.2715 11.9111 76.2715 11.9111C76.2715 12.0029 79.298 12.7373 80.7654 12.8291C81.1322 13.6553 81.6825 14.2979 82.141 15.0322C82.5996 15.6748 83.0581 16.4092 83.6084 17.0518C83.7001 17.1436 84.1587 16.7764 84.1587 16.7764C84.8006 15.9502 85.4426 14.8486 85.8095 13.7471C86.7266 14.0225 88.0105 13.4717 88.9276 13.1963C89.9364 12.8291 90.8535 12.3701 91.4038 11.4522C91.4038 11.3604 91.4038 11.3604 91.4038 11.3604C91.6789 11.1768 88.6525 7.78028 88.1939 7.1377Z" fill="white"/>
<path fill-rule="evenodd" clip-rule="evenodd" d="M120.568 33.3912C117.633 37.8893 116.991 43.6725 117.358 48.9049C119.834 48.0787 122.678 48.4459 125.245 48.4459C128.272 48.4459 131.39 48.4459 134.325 47.4361C136.984 46.5182 140.561 44.4068 140.561 41.1939C140.561 39.4498 139.369 37.8893 137.993 36.8795C136.709 35.9615 135.517 35.6861 134.141 35.8697C133.408 36.1451 132.582 36.4205 131.757 36.6041C131.482 36.6959 131.298 36.4205 131.39 36.2369C132.307 33.483 132.399 28.8014 128.547 28.3424C125.337 27.8834 122.127 31.0045 120.568 33.3912ZM134.875 48.5377C133.866 48.9049 132.857 49.0885 131.849 49.2721C129.281 49.6393 126.621 49.4557 124.053 49.5475C122.861 49.5475 121.76 49.6393 120.568 49.8228C119.376 50.0064 118.275 50.3736 117.175 50.649V50.7408C120.935 49.4557 124.879 50.3736 128.73 50.19C130.84 50.0982 132.949 49.5475 134.875 48.5377ZM130.565 28.3424C132.766 29.9947 132.949 32.9322 132.215 35.4107C132.949 35.0435 133.866 35.0435 134.692 35.1353C136.709 34.7682 139.185 36.7877 140.194 38.2564C141.203 39.6334 141.387 41.1021 141.02 42.4791C141.02 42.4791 141.02 42.4791 141.02 42.5709C140.561 46.8853 134.967 49.8228 131.207 50.649C126.438 51.7506 121.485 50.0064 116.9 51.8424C116.9 51.9342 116.716 52.026 116.625 51.9342C116.441 51.9342 116.166 51.7506 116.258 51.4752C116.258 51.2916 116.349 51.108 116.349 50.9244C116.166 50.0064 116.166 48.9967 116.349 48.0787C115.983 45.233 116.533 42.2037 117.175 39.5416C118 36.0533 119.468 32.7486 122.127 30.3619C124.328 28.3424 127.905 26.3228 130.565 28.3424Z" fill="white"/>
<path fill-rule="evenodd" clip-rule="evenodd" d="M113.874 2.45581C112.957 1.81323 111.581 2.27222 111.397 3.37378V3.46558C111.397 3.55737 111.397 3.55737 111.397 3.64917C111.397 3.74097 111.397 3.74097 111.489 3.83276C111.489 3.92456 111.489 4.01636 111.581 4.10815C111.581 4.10815 111.581 4.10815 111.581 4.19995C111.489 4.65894 111.581 5.11792 111.764 5.48511C112.315 6.31128 113.507 6.49487 114.332 5.94409C115.158 5.30151 115.249 4.19995 114.699 3.37378C114.607 3.19019 114.424 3.00659 114.24 2.9148C114.149 2.7312 113.965 2.6394 113.874 2.45581Z" fill="white"/>
<path fill-rule="evenodd" clip-rule="evenodd" d="M143.771 25.6798C142.762 24.9454 141.111 24.5782 140.194 25.588V25.6798C141.662 25.4962 142.946 25.6798 144.046 26.7813C144.963 27.6993 145.33 28.9844 145.972 29.9942C146.064 30.086 146.156 29.9942 146.156 29.9024C145.972 28.3419 145.147 26.5977 143.771 25.6798Z" fill="white"/>
<path fill-rule="evenodd" clip-rule="evenodd" d="M141.111 28.1582C140.194 28.25 140.194 29.9023 140.928 29.8105C140.928 29.9023 140.928 29.9941 141.019 30.1777C141.111 30.2695 141.295 30.3613 141.386 30.2695C142.578 29.9023 142.303 28.1582 141.111 28.1582Z" fill="white"/>
<path fill-rule="evenodd" clip-rule="evenodd" d="M132.582 20.9987C132.215 20.9987 131.848 21.274 131.665 21.733C131.298 22.7428 132.49 23.569 133.316 23.11C133.683 23.3854 134.416 23.0182 134.233 22.4674C134.141 22.2838 134.049 22.1002 133.866 21.8248C133.866 21.6412 133.774 21.3658 133.683 21.274C133.316 20.8151 132.857 20.7233 132.582 20.9987Z" fill="white"/>
<path fill-rule="evenodd" clip-rule="evenodd" d="M80.2154 21.5493C77.8309 20.1724 75.6298 18.7954 73.7956 16.5923C71.9614 14.3892 70.7692 11.7271 70.0355 8.97314C70.0355 8.88135 69.8521 8.88135 69.8521 8.97314C70.4023 14.3892 74.8044 20.2642 80.1237 21.8247C80.2154 21.8247 80.3071 21.6411 80.2154 21.5493Z" fill="white"/>
<path fill-rule="evenodd" clip-rule="evenodd" d="M104.978 40.1839C104.886 40.1839 104.794 40.1839 104.703 40.0921C104.519 39.8167 104.244 39.5413 103.877 39.4495C104.336 39.5413 104.703 39.8167 104.978 40.1839ZM105.895 42.2034C105.895 42.0198 105.803 41.8362 105.711 41.6526C105.711 41.469 105.62 41.3772 105.528 41.2854C105.528 41.1936 105.528 41.1018 105.528 41.01C105.803 41.2854 105.987 41.7444 105.895 42.2034ZM104.886 43.4885C104.611 43.5803 104.336 43.6721 104.152 43.6721L104.244 43.5803C104.336 43.4885 104.427 43.3967 104.519 43.2132C104.886 43.1214 105.161 42.846 105.436 42.5706C105.345 42.9378 105.161 43.2132 104.886 43.4885ZM104.244 42.4788C104.152 42.5706 104.061 42.5706 103.877 42.5706C103.602 42.5706 103.419 42.5706 103.235 42.4788C103.235 42.2034 103.235 41.928 103.327 41.7444C103.51 41.6526 103.694 41.5608 103.785 41.469C103.877 41.5608 104.061 41.7444 104.152 41.8362C104.244 42.0198 104.336 42.2952 104.244 42.4788ZM102.685 39.8167C102.868 39.7249 103.143 39.7249 103.419 39.8167C103.602 39.8167 103.785 40.0003 103.969 40.0921C103.602 40.0921 103.327 40.0921 103.052 40.1839C102.96 40.1839 102.777 40.2757 102.685 40.3675C102.593 40.3675 102.502 40.4592 102.318 40.4592C102.226 40.4592 102.226 40.551 102.135 40.551C102.226 40.1839 102.41 40.0003 102.685 39.8167ZM102.868 39.3577C102.135 39.4495 101.676 40.1839 101.584 41.01C101.218 41.6526 101.401 42.4788 101.951 42.9378C101.951 43.1214 102.043 43.3968 102.226 43.5803C102.593 44.0393 103.143 44.0393 103.602 43.8557C103.969 44.1311 104.519 44.1311 105.161 43.7639C105.436 43.5803 105.62 43.3968 105.711 43.1214C105.895 42.846 106.078 42.5706 106.17 42.2952C106.353 41.5608 106.078 40.7346 105.436 40.2757C105.069 39.4495 103.969 38.8069 102.868 39.3577Z" fill="white"/>
<path fill-rule="evenodd" clip-rule="evenodd" d="M99.1999 13.9305C99.1082 14.2977 99.1082 14.6649 99.2916 15.0321C99.3833 15.2157 99.6584 15.3992 99.9336 15.3992H100.025C100.851 15.5828 101.401 14.7567 101.034 14.0223C100.576 13.3797 99.5667 13.0125 99.1999 13.9305Z" fill="white"/>
<path fill-rule="evenodd" clip-rule="evenodd" d="M115.708 29.5348C113.323 31.0953 111.947 34.2164 111.305 36.7867C110.388 40.4586 111.03 44.4977 111.764 48.1695C111.764 48.4449 112.131 48.3531 112.131 48.1695C112.223 44.6813 111.214 41.2848 111.764 37.7965C112.314 34.4918 114.057 32.2887 115.891 29.7184C115.983 29.6266 115.891 29.443 115.708 29.5348Z" fill="white"/>
</svg>
