<svg width="209" height="94" viewBox="0 0 209 94" fill="none" xmlns="http://www.w3.org/2000/svg">
<path fill-rule="evenodd" clip-rule="evenodd" d="M81.6222 32.0371C83.273 38.0957 98.1301 39.9316 105.375 40.5742C108.86 40.8496 112.896 38.1875 114.638 35.3418C116.289 32.5879 118.123 29.9258 119.866 27.1719C120.232 26.8965 120.691 26.7129 120.966 26.3457C157.467 -13.9531 74.5605 6.15038 81.6222 32.0371Z" fill="#CBE6D2"/>
<path fill-rule="evenodd" clip-rule="evenodd" d="M87.2167 5.32422C87.3084 3.58008 87.767 1.92773 87.3084 0.183594C87.4001 0.183594 87.3084 1.86265e-09 87.2167 0.0917969C87.125 1.86265e-09 86.9416 1.86265e-09 86.9416 0.0917969V0.183594C85.8411 0.642578 82.5395 2.9375 82.0809 3.48828C81.4389 2.8457 76.9451 1.10156 75.7529 0.642578C75.5694 0.550781 75.4777 0.734375 75.5694 0.917969C76.3031 2.57031 76.8534 4.68164 78.0456 6.79297C75.8446 8.07812 73.0933 10.373 71.7176 12.3926C71.6259 12.5762 79.513 11.9336 80.0633 12.3008C80.5218 12.668 82.5395 19.1855 82.7229 19.002C83.8234 18.084 84.4654 15.1465 85.4742 12.4844C86.7582 13.3105 90.5183 13.2188 91.6188 12.209C91.894 12.0254 87.125 7.34375 87.2167 5.32422Z" fill="#FDCF9D"/>
<path fill-rule="evenodd" clip-rule="evenodd" d="M123.076 35.8008C119.774 40.7578 119.132 47.0918 119.591 52.875C122.342 51.957 125.46 52.3242 128.303 52.3242C131.696 52.3242 135.09 52.2324 138.3 51.2226C141.234 50.2129 145.178 47.918 145.178 44.3379C145.178 42.4101 143.802 40.7578 142.335 39.5644C140.959 38.5547 139.675 38.2793 138.116 38.3711C137.291 38.6465 136.374 38.9219 135.548 39.1973C135.273 39.2891 135.09 39.0137 135.181 38.7383C136.19 35.709 136.282 30.5684 132.063 30.0176C128.303 29.6504 124.818 33.1387 123.076 35.8008Z" fill="#F5ACCC"/>
<path d="M28.7051 91.0625C29.8973 91.2461 35.1248 84.6367 35.5834 83.7187C35.0331 85.5547 30.7227 91.9805 28.1548 91.8887C27.3294 91.8887 26.6874 91.5215 26.2289 90.8789C25.7703 90.2363 25.4035 89.4102 25.3118 88.4004C24.3029 81.1484 25.0366 69.2148 28.0631 61.7793C28.4299 60.9531 28.7051 60.3105 29.0719 59.7598C29.4387 59.3008 29.8056 59.0254 30.2641 59.0254H30.4476C30.9978 59.0254 31.4564 59.3926 31.6398 59.8516C31.9149 60.3105 31.9149 60.8613 31.7315 61.3203C27.8797 70.2246 28.2465 79.6797 28.0631 89.3184V89.502C28.0631 89.7773 28.0631 90.1445 28.1548 90.4199C28.2465 90.8789 28.4299 91.0625 28.7051 91.0625Z" fill="#872991"/>
<path d="M68.6911 91.0625C70.8922 91.0625 75.5694 86.4727 76.7617 84.8203C76.9451 84.5449 77.0368 84.4531 77.0368 84.6367C75.9363 87.1152 71.4424 91.8887 68.1409 91.8887C66.9486 91.8887 66.1232 91.4297 65.573 90.5117C65.0227 89.5938 64.7476 88.4004 64.7476 86.9316C64.7476 86.2891 64.8393 85.4629 65.0227 84.3613C65.2061 83.2598 65.4812 82.25 65.9398 81.2402C66.3984 80.2305 66.9486 79.3125 67.774 78.5781C68.5077 77.8437 69.5165 77.4766 70.7088 77.4766C71.259 77.4766 71.7176 77.6602 72.0844 77.9355C72.4513 78.2109 72.6347 78.5781 72.8181 79.0371C73.0015 79.4961 73.0015 79.8633 73.0015 80.3223C73.0015 80.7812 72.9098 81.1484 72.7264 81.4238C72.6347 81.6992 72.543 81.791 72.2678 81.8828C72.0844 81.9746 71.901 81.9746 71.7176 81.8828C71.5342 81.791 71.3507 81.6992 71.259 81.5156C71.1673 81.332 71.1673 81.1484 71.259 80.9648C71.3507 80.6894 71.4424 80.4141 71.5342 80.1387C71.6259 79.7715 71.6259 79.4961 71.6259 79.2207C71.6259 78.9453 71.5342 78.6699 71.4424 78.4863C71.3507 78.3027 71.1673 78.1191 70.8922 78.1191C70.617 78.1191 70.3419 78.3945 69.9751 78.9453C69.6082 79.4961 69.2414 80.2305 68.8745 81.0566C68.5077 81.8828 68.2326 82.8926 67.9574 83.9941C67.6823 85.0957 67.5906 86.1973 67.5906 87.2988C67.5906 87.5742 67.5906 87.8496 67.5906 88.2168C67.5906 88.584 67.6823 89.043 67.6823 89.4102C67.774 89.7773 67.8657 90.1445 67.9574 90.5117C68.2326 90.8789 68.416 91.0625 68.6911 91.0625Z" fill="#872991"/>
<path d="M89.6011 89.3184C89.8762 89.3184 90.5182 89.043 90.9767 88.584C92.5358 86.9316 93.0861 85.0039 94.4618 83.2598C93.9115 85.0957 92.169 88.8594 90.3348 89.8691C89.9679 90.0527 89.6011 90.1445 89.1425 90.1445C88.3171 90.1445 87.6752 89.7773 87.2166 89.2266C86.758 88.584 86.4829 87.8496 86.2995 86.9316C86.1161 86.0137 86.0244 84.9121 86.0244 83.7188C86.0244 82.5254 86.0244 81.332 86.0244 80.2305C85.5658 81.1484 85.1073 82.0664 84.557 82.9844C84.0067 83.9941 83.4565 84.8203 82.8145 85.7383C82.1725 86.5645 81.5305 87.2988 80.8886 87.8496C80.2466 88.4004 79.6046 88.6758 78.9626 88.6758C77.7704 88.6758 76.945 88.2168 76.3947 87.2988C75.8445 86.3809 75.5693 85.1875 75.5693 83.7188C75.5693 83.0762 75.661 82.3418 75.8445 81.4238C76.0279 80.5059 76.303 79.6797 76.7616 78.8535C77.2201 78.0273 77.7704 77.293 78.5958 76.7422C79.3295 76.1914 80.3383 75.916 81.5305 75.916C82.7228 75.916 83.4565 76.1914 83.8233 76.7422C84.1901 77.293 84.557 77.9355 84.8321 78.5781C84.9238 78.8535 84.9238 79.0371 84.8321 79.1289C84.7404 79.3125 84.6487 79.4043 84.4653 79.4961C84.2819 79.5879 84.0984 79.5879 83.915 79.4961C83.7316 79.4043 83.5482 79.3125 83.4565 79.1289C83.3648 78.9453 83.273 78.6699 83.1813 78.3945C83.0896 78.1191 82.9979 77.8438 82.9062 77.5684C82.8145 77.293 82.6311 77.0176 82.5394 76.834C82.3559 76.6504 82.1725 76.5586 81.8974 76.5586C81.6222 76.5586 81.3471 76.7422 80.9803 77.1094C80.6134 77.4766 80.2466 78.0273 79.8797 78.6699C79.5129 79.3125 79.2378 80.1387 78.9626 81.0566C78.6875 81.9746 78.5958 82.9844 78.5958 83.9941C78.5958 84.2695 78.5958 84.5449 78.5958 84.9121C78.5958 85.2793 78.6875 85.7383 78.7792 86.1055C78.8709 86.4727 78.9626 86.8398 79.1461 87.1152C79.3295 87.3906 79.5129 87.5742 79.6963 87.5742C80.1549 87.5742 80.7051 87.1152 81.3471 86.1973C81.9891 85.2793 82.6311 84.1777 83.273 82.8926C83.915 81.6074 84.557 80.4141 85.1073 79.3125C85.6575 78.1191 86.0244 77.3848 86.2995 77.0176C86.4829 76.6504 86.6663 76.4668 87.0332 76.2832C87.4 76.1914 87.6752 76.0996 88.042 76.2832C88.4088 76.375 88.684 76.5586 88.8674 76.834C89.1425 77.1094 89.2342 77.3848 89.2342 77.752L89.0508 87.666C89.0508 87.9414 89.0508 88.3086 89.1425 88.6758C89.0508 89.1348 89.2342 89.3184 89.6011 89.3184Z" fill="#872991"/>
<path d="M101.524 86.5645C101.891 86.5645 102.349 86.3809 102.808 86.0137C103.266 85.6465 103.725 85.0957 104.183 84.5449C104.642 83.9941 105.1 83.3516 105.559 82.6172C106.017 81.9746 106.384 81.332 106.751 80.7812C107.118 80.2305 107.393 79.8633 107.577 79.4961C107.76 79.1289 107.852 79.0371 107.852 79.2207C107.21 80.7813 106.568 82.0664 105.834 83.2598C105.192 84.2695 104.458 85.1875 103.633 86.0137C102.808 86.8398 101.891 87.2988 100.973 87.207C100.607 87.207 100.148 87.0234 99.7812 86.748C99.3226 86.4727 98.9558 86.1055 98.5889 85.6465C98.2221 85.1875 97.8552 84.6367 97.4884 84.0859C97.1216 83.5352 96.8464 82.9844 96.663 82.4336C96.5713 83.168 96.5713 83.9941 96.5713 84.7285C96.5713 85.7383 96.2044 89.043 96.9381 89.8691C95.1039 90.2363 94.0034 87.2988 93.7283 86.1055C93.6365 85.5547 93.4531 85.0039 93.4531 84.4531C93.4531 76.9258 94.1868 72.0605 95.3791 66.6445C95.5625 65.8184 96.2962 65.543 96.8464 65.543H97.0298C97.5801 65.543 98.0387 65.9102 98.2221 66.3691C98.4972 66.8281 98.4055 67.2871 98.3138 67.8379C97.7635 70.1328 96.8464 74.7227 96.7547 79.0371C97.2133 78.2109 97.7635 77.4766 98.4055 76.7422C99.0475 76.0078 99.8729 75.6406 100.698 75.6406C101.524 75.6406 102.074 76.0078 102.532 76.5586C102.899 77.2012 103.174 77.9355 103.174 78.7617C103.174 79.1289 103.083 79.4043 102.899 79.5879C102.716 79.7715 102.441 79.9551 102.257 80.0469C102.074 80.1387 101.799 80.0469 101.615 79.9551C101.432 79.7715 101.34 79.4961 101.34 79.0371C101.34 78.7617 101.34 78.5781 101.34 78.2109C101.34 77.9355 101.34 77.5684 101.249 77.293C101.157 77.0176 101.157 76.7422 100.973 76.5586C100.882 76.375 100.79 76.2832 100.607 76.2832C100.24 76.2832 99.8729 76.4668 99.506 76.9258C99.1392 77.3848 98.7724 77.8438 98.4055 78.3945C98.0387 78.9453 97.7635 79.4961 97.5801 80.0469C97.305 80.5977 97.2133 80.9648 97.1216 81.2402C97.3967 81.6992 97.7635 82.1582 98.1304 82.8008C98.4972 83.4434 98.9558 83.9941 99.4143 84.5449C99.8729 85.0957 100.24 85.5547 100.698 85.9219C101.065 86.3809 101.34 86.5645 101.524 86.5645Z" fill="#872991"/>
<path d="M109.136 89.6855C111.612 89.8691 114.638 84.1777 115.555 82.4336C115.739 82.0664 115.83 82.3418 115.83 82.4336C114.822 85.0039 112.07 90.6035 108.677 90.5117C107.485 90.5117 106.659 90.0527 106.109 89.1348C105.559 88.2168 105.284 87.0234 105.284 85.5547C105.284 84.9121 105.375 84.1777 105.467 83.2598C105.559 82.3418 105.834 81.4238 106.293 80.5059C106.751 79.5879 107.301 78.8535 108.035 78.2109C108.769 77.5684 109.778 77.293 110.97 77.293C111.887 77.293 112.529 77.5684 112.804 78.0273C113.079 78.4863 113.263 79.1289 113.263 79.8633C113.263 80.4141 113.079 81.0566 112.804 81.6992C112.162 83.0762 111.153 84.2695 110.053 85.2793C109.411 85.8301 108.769 86.1973 108.127 86.5645C108.127 86.8398 108.127 87.207 108.127 87.5742C108.127 87.9414 108.218 88.3086 108.31 88.584C108.402 88.8594 108.494 89.1348 108.585 89.4102C108.769 89.5938 108.86 89.6855 109.136 89.6855ZM111.061 78.0273C110.786 78.0273 110.511 78.2109 110.236 78.6699C109.869 79.1289 109.594 79.6797 109.319 80.3223C109.044 81.0566 108.769 81.8828 108.494 82.8008C108.218 83.7187 108.127 84.7285 108.127 85.8301C108.494 85.4629 108.952 85.0957 109.411 84.5449C109.869 83.9941 110.236 83.4434 110.695 82.8926C111.153 82.3418 111.428 81.6992 111.612 81.0566C111.887 80.4141 111.979 79.8633 111.979 79.3125C111.979 78.7617 111.887 78.3945 111.795 78.3027C111.612 78.0273 111.337 78.0273 111.061 78.0273Z" fill="#872991"/>
<path d="M127.845 86.1055C129.129 85.7383 131.972 85.3711 132.889 85.3711C133.806 85.3711 134.265 85.4629 134.265 85.7383C133.806 85.7383 133.347 85.8301 132.889 85.9219C132.43 86.0137 130.229 86.1973 129.771 86.2891C129.22 86.3809 128.67 86.4727 128.12 86.6563C128.395 87.207 128.487 87.666 128.487 88.125C128.487 89.043 128.303 89.8691 127.936 90.6035C127.57 91.3379 127.111 91.9805 126.653 92.4395C126.102 92.9902 125.552 93.3574 124.91 93.6328C124.268 93.9082 123.718 94 123.168 94C122.617 94 122.159 93.9082 121.884 93.7246C121.608 93.541 121.425 93.2656 121.333 92.9902C121.15 92.7149 121.15 92.3477 121.15 91.9805C121.15 90.8789 121.608 89.9609 122.434 89.1348C123.259 88.3086 124.176 87.666 125.369 87.1152C125.093 86.5645 124.727 86.1055 124.268 85.4629C123.901 84.9121 123.443 84.3613 123.168 83.7188C122.801 83.168 122.526 82.5254 122.25 81.9746C121.975 81.4238 121.884 80.873 121.884 80.4141C121.884 79.4043 122.159 78.5781 122.526 78.0273C122.892 77.4766 123.443 77.1094 123.993 76.9258C124.543 76.7422 125.185 76.5586 125.827 76.6504C126.469 76.6504 127.019 76.6504 127.478 76.6504C127.753 76.6504 128.028 76.6504 128.395 76.7422C128.67 76.7422 129.037 76.834 129.312 76.9258C129.587 77.0176 129.862 77.2012 130.046 77.3848C130.229 77.5684 130.321 77.752 130.321 78.0273V78.1191C130.229 78.5781 130.046 78.8535 129.771 78.8535C129.404 78.9453 129.129 78.7617 128.945 78.3027C128.854 78.1191 128.67 77.9355 128.578 77.6602C128.487 77.3848 128.303 77.293 128.12 77.293C128.028 77.293 127.753 77.293 127.386 77.293C127.019 77.293 126.744 77.3848 126.377 77.4766C126.011 77.6602 125.735 77.9355 125.46 78.4863C125.185 78.9453 125.093 79.6797 125.002 80.6895C125.002 81.1484 125.093 81.5156 125.277 82.0664C125.46 82.5254 125.735 82.9844 126.011 83.5352C126.286 83.9941 126.653 84.4531 126.928 85.0039C127.203 85.2793 127.57 85.6465 127.845 86.1055ZM126.102 89.043C126.102 88.6758 125.919 88.2168 125.644 87.666C124.818 88.125 124.176 88.6758 123.534 89.4102C122.984 90.1445 122.709 90.9707 122.617 91.9805C122.617 92.2559 122.617 92.6231 122.709 92.8984C122.801 93.1738 122.984 93.3574 123.443 93.3574C124.085 93.3574 124.635 92.9902 125.185 92.1641C125.827 91.2461 126.102 90.2363 126.102 89.043Z" fill="#872991"/>
<path d="M136.007 88.9512C138.208 88.9512 142.06 84.2695 143.252 82.709C143.436 82.4336 143.527 82.3418 143.527 82.5254C142.427 85.0039 138.758 89.8691 135.457 89.7773C134.265 89.7773 133.439 89.3184 132.889 88.4004C132.339 87.4824 132.063 86.2891 132.063 84.8203C132.063 84.1777 132.155 83.3516 132.339 82.25C132.522 81.1484 132.797 80.1387 133.256 79.1289C133.714 78.1191 134.265 77.2012 135.09 76.4668C135.824 75.7324 136.832 75.3652 138.025 75.3652C138.575 75.3652 139.034 75.5488 139.4 75.8242C139.767 76.0996 139.951 76.4668 140.134 76.9258C140.317 77.3848 140.317 77.752 140.317 78.2109C140.317 78.6699 140.226 79.0371 140.042 79.3125C139.951 79.5879 139.859 79.6797 139.584 79.7715C139.4 79.8633 139.217 79.8633 139.034 79.7715C138.85 79.6797 138.667 79.5879 138.575 79.4043C138.483 79.2207 138.483 79.0371 138.575 78.8535C138.667 78.5781 138.758 78.3027 138.85 78.0273C138.942 77.6602 138.942 77.3848 138.942 77.1094C138.942 76.834 138.85 76.5586 138.758 76.375C138.667 76.1914 138.483 76.0078 138.116 76.0078C137.841 76.0078 137.566 76.2832 137.199 76.834C136.832 77.3848 136.466 78.1191 136.099 78.9453C135.732 79.7715 135.457 80.7812 135.182 81.8828C134.907 82.9844 134.815 84.0859 134.815 85.1875C134.815 85.4629 134.815 85.7383 134.815 86.1055C134.815 86.4727 134.907 86.9316 134.907 87.2988C134.998 87.666 135.09 88.0332 135.182 88.4004C135.548 88.8594 135.732 88.9512 136.007 88.9512Z" fill="#872991"/>
<path d="M154.441 91.4297C154.716 91.4297 154.991 91.2461 155.45 90.7871C155.908 90.3281 156.275 89.8691 156.734 89.3184C157.192 88.6758 157.651 87.9414 158.201 87.1152C158.018 87.8496 157.742 88.4922 157.467 89.1348C157.192 89.6855 156.917 90.2363 156.459 90.7871C156.092 91.3379 155.541 91.7051 155.083 91.9805C154.716 92.1641 154.349 92.2559 153.891 92.2559C153.065 92.2559 152.515 91.9805 152.056 91.4297C151.598 90.8789 151.323 90.1445 151.139 89.2266C150.956 88.3086 150.864 87.2988 150.772 86.1973C150.772 85.0957 150.772 83.9023 150.772 82.8008C150.497 83.7187 150.222 84.6367 149.947 85.6465C149.672 86.6563 149.305 87.666 148.847 88.584C148.48 89.502 148.021 90.3281 147.563 90.9707C147.104 91.6133 146.645 92.0723 146.187 92.1641C146.095 92.1641 146.004 92.1641 146.004 92.1641C146.004 92.1641 145.912 92.1641 145.82 92.1641C144.811 92.1641 144.078 91.7051 143.619 90.8789C143.16 90.0527 142.702 88.9512 142.702 87.7578C142.61 81.1484 142.61 75.3652 144.995 69.3066C145.362 68.4805 145.82 68.1133 146.187 68.1133H146.37C146.921 68.1133 147.379 68.4805 147.563 68.9395C147.746 69.3984 147.838 69.9492 147.654 70.4082C145.453 77.2012 145.912 81.2402 145.728 88.4922C145.728 88.9512 145.82 89.502 145.82 89.8691C145.912 90.3281 145.912 90.6953 146.004 90.9707C146.095 91.2461 146.187 91.4297 146.37 91.4297H146.462C146.737 91.3379 146.921 90.6953 147.196 89.6855C147.471 88.584 147.746 87.3906 148.113 86.0137C148.48 84.6367 148.847 83.2598 149.305 81.9746C149.764 80.6895 150.314 79.6797 151.048 79.0371C151.231 78.7617 151.506 78.5781 151.873 78.4863C152.24 78.3945 152.515 78.3945 152.79 78.4863C153.065 78.5781 153.34 78.7617 153.524 79.0371C153.707 79.3125 153.891 79.5879 153.799 79.9551L153.616 89.8691C153.616 90.1445 153.616 90.5117 153.707 90.8789C153.891 91.2461 154.074 91.4297 154.441 91.4297Z" fill="#872991"/>
<path d="M166.18 81.332C166.638 81.332 167.097 81.332 167.647 81.4238C168.197 81.5156 168.656 81.5156 169.206 81.6074C169.756 81.6992 170.307 81.6992 170.949 81.791C170.49 81.8828 169.94 81.9746 169.481 82.0664C168.564 82.25 167.464 82.3418 166.088 82.3418C165.996 83.2598 165.721 84.0859 165.446 85.0039C165.171 85.9219 164.712 86.748 164.254 87.4824C163.795 88.2168 163.153 88.8594 162.511 89.3184C161.869 89.7773 161.136 90.0527 160.31 89.9609C159.118 89.9609 158.293 89.502 157.742 88.584C157.192 87.666 156.917 86.4727 156.917 85.0039C156.917 84.3613 157.009 83.627 157.192 82.709C157.376 81.791 157.651 80.873 158.109 80.0469C158.568 79.2207 159.118 78.4863 159.943 77.9355C160.677 77.3848 161.686 77.1094 162.878 77.1094C164.07 77.1094 164.896 77.5684 165.446 78.3027C165.996 79.0371 166.271 79.8633 166.18 80.5977V81.332ZM160.952 88.9512C161.319 88.9512 161.686 88.7676 162.144 88.4004C162.511 88.0332 162.97 87.4824 163.245 86.8398C163.612 86.1973 163.887 85.4629 164.254 84.7285C164.529 83.9023 164.804 83.168 164.988 82.4336H164.896V82.3418C164.804 82.3418 164.621 82.25 164.529 82.0664C164.437 81.8828 164.346 81.5156 164.346 81.0566C164.346 80.5977 164.254 80.1387 164.162 79.6797C164.07 79.2207 163.979 78.7617 163.887 78.3945C163.795 78.0273 163.52 77.8438 163.245 77.8438C162.97 77.8438 162.695 78.0273 162.328 78.3945C161.961 78.7617 161.594 79.3125 161.227 79.9551C160.861 80.5977 160.585 81.4238 160.31 82.3418C160.035 83.2598 159.943 84.2695 159.943 85.3711C159.943 85.6465 159.943 85.9219 159.943 86.2891C159.943 86.6562 160.035 87.1152 160.127 87.4824C160.219 87.8496 160.31 88.2168 160.494 88.4922C160.494 88.8594 160.769 88.9512 160.952 88.9512Z" fill="#872991"/>
<path d="M177.185 82.5254C177.644 82.5254 178.102 82.5254 178.653 82.6172C179.203 82.709 179.661 82.709 180.212 82.8008C180.762 82.8926 181.312 82.8926 181.954 82.9844C181.496 83.0762 180.945 83.168 180.487 83.2598C179.57 83.4434 178.469 83.5352 177.093 83.5352C177.002 84.4531 176.727 85.2793 176.451 86.1973C176.176 87.1152 175.718 87.9414 175.259 88.6758C174.801 89.4101 174.159 90.0527 173.517 90.5117C172.875 90.9707 172.141 91.2461 171.316 91.1543C170.123 91.1543 169.298 90.6953 168.748 89.7773C168.197 88.8594 167.922 87.666 167.922 86.1973C167.922 85.5547 168.014 84.8203 168.197 83.9023C168.381 82.9844 168.656 82.0664 169.115 81.2402C169.573 80.4141 170.123 79.6797 170.949 79.1289C171.682 78.5781 172.691 78.3027 173.884 78.3027C175.076 78.3027 175.901 78.7617 176.451 79.4961C177.002 80.2305 177.277 81.0566 177.185 81.791V82.5254ZM171.958 90.1445C172.324 90.1445 172.691 89.9609 173.15 89.5937C173.517 89.2266 173.975 88.6758 174.25 88.0332C174.617 87.3906 174.892 86.6562 175.259 85.9219C175.534 85.0957 175.809 84.3613 175.993 83.6269H175.901V83.5352C175.809 83.5352 175.626 83.4434 175.534 83.2598C175.443 83.0762 175.351 82.709 175.351 82.25C175.351 81.791 175.259 81.332 175.168 80.873C175.076 80.4141 174.984 79.9551 174.892 79.5879C174.801 79.2207 174.526 79.0371 174.25 79.0371C173.975 79.0371 173.7 79.2207 173.333 79.5879C172.966 79.9551 172.6 80.5059 172.233 81.1484C171.866 81.791 171.591 82.6172 171.316 83.5352C171.041 84.4531 170.949 85.4629 170.949 86.5645C170.949 86.8398 170.949 87.1152 170.949 87.4824C170.949 87.8496 171.041 88.3086 171.132 88.6758C171.224 89.043 171.316 89.4101 171.499 89.6855C171.499 89.9609 171.682 90.0527 171.958 90.1445Z" fill="#872991"/>
<path d="M190.116 90.4199C189.015 91.5215 187.456 93.7246 185.255 93.4492C175.992 93.2656 177.827 64.9004 187.181 63.8906C187.731 63.7988 188.282 63.9824 188.557 64.2578C192.225 67.6543 184.155 76.7422 182.137 80.1387V80.9648C182.137 82.6172 183.146 92.8066 185.714 92.8066C187.731 93.082 190.024 90.6035 190.116 90.4199ZM186.448 64.8086C183.971 66.0937 182.229 75.457 182.412 78.1191C187.731 69.3984 190.85 62.6972 186.448 64.8086Z" fill="#872991"/>
<path d="M45.7637 92.4395C46.0388 92.4395 46.3139 92.2559 46.7725 91.7969C47.231 91.3379 47.5979 90.8789 48.0564 90.3281C48.515 89.6856 48.9735 88.9512 49.5238 88.125C49.3404 88.8594 49.0652 89.502 48.7901 90.1445C48.515 90.6953 48.2398 91.2461 47.7813 91.7969C47.4145 92.3477 46.8642 92.7148 46.4056 92.9902C46.0388 93.1738 45.6719 93.2656 45.2134 93.2656C44.388 93.2656 43.8377 92.9902 43.3792 92.4395C42.9206 91.8887 42.6455 91.1543 42.4621 90.2363C42.2786 89.3184 42.1869 88.3086 42.0952 87.207C42.0952 86.1055 42.0952 84.9121 42.0952 83.8106C41.8201 84.7285 41.545 85.6465 41.2698 86.6563C40.9947 87.666 40.6279 88.6758 40.1693 89.5938C39.8025 90.5117 39.3439 91.3379 38.8854 91.9805C38.4268 92.623 37.9682 93.082 37.5097 93.1738C37.418 93.1738 37.3263 93.1738 37.3263 93.1738C37.3263 93.1738 37.2346 93.1738 37.1428 93.1738C36.134 93.1738 35.4003 92.7148 34.9418 91.8887C34.4832 91.0625 34.0247 89.9609 34.0247 88.6758C33.933 82.0664 33.933 76.2832 36.3174 70.2246C36.6843 69.3984 37.1428 69.0312 37.5097 69.0312H37.6931C38.2434 69.0312 38.7019 69.3984 38.8854 69.8574C39.1605 70.3164 39.1605 70.8672 38.9771 71.3262C36.776 78.1191 37.2346 82.1582 37.0511 89.4102C37.0511 89.8691 37.1428 90.4199 37.1428 90.7871C37.2346 91.2461 37.2346 91.6133 37.3263 91.8887C37.418 92.1641 37.5097 92.3477 37.6931 92.3477H37.7848C38.06 92.2559 38.2434 91.6133 38.5185 90.6035C38.7936 89.502 39.0688 88.3086 39.4356 86.9316C39.8025 85.5547 40.1693 84.1777 40.6279 82.8926C41.0864 81.6074 41.6367 80.5977 42.3704 79.9551C42.5538 79.6797 42.8289 79.4961 43.1958 79.4043C43.5626 79.3125 43.8377 79.3125 44.1129 79.4043C44.388 79.4961 44.6631 79.6797 44.8466 79.9551C45.03 80.2305 45.2134 80.5059 45.1217 80.873L44.9383 90.7871C44.9383 91.0625 44.9383 91.4297 45.03 91.7969C45.2134 92.2559 45.3968 92.4395 45.7637 92.4395Z" fill="#872991"/>
<path d="M53.0086 90.9707C55.4848 91.1543 58.5112 85.4629 59.4283 83.7187C59.6118 83.3516 59.7035 83.627 59.7035 83.7187C58.6947 86.2891 55.9433 91.8887 52.55 91.7969C51.3578 91.7969 50.5324 91.3379 49.9821 90.4199C49.4319 89.502 49.1567 88.3086 49.1567 86.8398C49.1567 86.1973 49.2484 85.4629 49.3402 84.5449C49.4319 83.627 49.707 82.709 50.1656 81.791C50.6241 80.873 51.1744 80.1387 51.9081 79.4961C52.6417 78.8535 53.6506 78.5781 54.8428 78.5781C55.7599 78.5781 56.4019 78.8535 56.677 79.3125C56.9522 79.7715 57.1356 80.4141 57.1356 81.1484C57.1356 81.6992 56.9522 82.3418 56.677 82.9844C56.035 84.3613 55.0262 85.5547 53.9257 86.5645C53.2837 87.1152 52.6417 87.4824 51.9998 87.8496C51.9998 88.125 51.9998 88.4922 51.9998 88.8594C51.9998 89.2266 52.0915 89.5938 52.1832 89.8691C52.2749 90.1445 52.3666 90.4199 52.4583 90.6953C52.6417 90.7871 52.8252 90.9707 53.0086 90.9707ZM54.9345 79.2207C54.6594 79.2207 54.3843 79.4043 54.1091 79.8633C53.7423 80.3223 53.4671 80.8731 53.192 81.5156C52.9169 82.25 52.6417 83.0762 52.3666 83.9941C52.0915 84.9121 51.9998 85.9219 51.9998 87.0234C52.3666 86.6563 52.8252 86.2891 53.2837 85.7383C53.7423 85.1875 54.1091 84.6367 54.5677 84.0859C54.9345 83.5352 55.3014 82.8926 55.4848 82.25C55.7599 81.6074 55.8516 81.0566 55.8516 80.5059C55.8516 79.9551 55.7599 79.5879 55.6682 79.4961C55.4848 79.3125 55.2097 79.2207 54.9345 79.2207Z" fill="#872991"/>
<path d="M0.458334 78.8535C0.366623 78.9453 0.274912 79.1289 0.183201 79.0371C-0.000220153 78.8535 -0.000220153 78.6699 0.0914906 78.5781C1.0086 77.293 2.01742 76.0996 3.5765 75.0898C12.1056 69.6738 24.3948 75.5488 34.0245 68.2969C34.1162 68.2051 34.2996 68.2969 34.3913 68.3887C34.483 68.5723 34.483 68.7559 34.3913 68.8477C24.9451 77.293 12.5642 71.6016 3.75992 75.457C2.29255 76.2832 1.37544 77.6602 0.458334 78.8535Z" fill="#872991"/>
<path d="M184.522 93.2656C184.338 93.2656 184.247 93.082 184.338 92.8984C184.338 92.7148 184.522 92.623 184.705 92.7148C188.465 93.6328 190.483 88.4004 191.767 85.5547C191.583 85.4629 191.4 85.2793 191.217 85.0957C190.483 84.4531 190.116 83.627 189.749 82.6172C189.382 81.5156 189.566 80.6895 190.024 80.1387C190.391 79.7715 191.033 79.5879 191.583 79.5879C194.885 79.7715 193.326 83.4434 192.592 85.1875C194.518 86.1055 196.627 85.1875 198.645 85.0957C202.13 85.0039 205.523 85.3711 208 88.125C208.091 88.2168 208.091 88.4004 208 88.584C207.908 88.6758 207.724 88.6758 207.541 88.584C205.157 86.1055 201.947 86.1973 198.645 86.3809C197.178 86.4727 195.619 86.4727 194.243 86.2891C193.509 86.1973 192.867 86.0137 192.409 85.8301C190.758 88.9512 188.649 94.2754 184.522 93.2656ZM191.95 85.0039C193.142 81.791 192.134 80.0469 191.4 80.1387C190.208 80.2305 189.291 81.8828 191.583 84.7285C191.675 84.8203 191.859 84.9121 191.95 85.0039Z" fill="#872991"/>
<path fill-rule="evenodd" clip-rule="evenodd" d="M62.73 39.6563C62.2714 37.4531 62.9134 35.4336 64.3808 33.7813C67.3155 30.6602 72.4513 29.6504 76.4866 28.916C80.797 28.1816 85.2908 27.9063 89.6929 27.9063C91.1603 27.9063 92.7194 28.0898 94.2785 28.1816C87.5836 28.8242 80.797 30.1094 74.5607 32.4043C72.543 33.1387 70.5254 34.0566 68.5995 35.0664C67.2238 35.8008 65.8482 36.627 65.0228 37.9121C64.1056 39.2891 63.8305 41.125 64.1974 42.7773C63.5554 41.8594 63.0051 40.9414 62.73 39.6563ZM64.931 42.9609C64.2891 40.207 65.4813 37.7285 68.2326 36.0762C71.5342 34.2402 75.1109 32.8633 78.6877 31.8535C83.3649 30.4766 88.2256 29.834 92.9945 29.2832C88.3173 30.6602 83.8235 32.6797 79.3296 34.5156C75.8446 35.9844 71.9928 37.2695 68.6912 39.1973C67.2238 40.0234 65.573 41.4004 65.0228 43.0527C65.0228 42.9609 65.0228 42.9609 64.931 42.9609ZM96.1127 29.2832C94.5536 30.1094 92.9945 30.9356 91.4354 31.6699L82.8146 36.168C79.9716 37.6367 77.0369 39.1973 74.1938 40.666C72.6347 41.4922 71.0757 42.2266 69.5166 43.0527C68.3243 43.6953 66.9487 44.2461 65.8482 45.0723C65.7564 44.7969 65.6647 44.5215 65.573 44.1543C66.1233 40.666 70.0668 39.3809 72.9099 38.0957C75.9363 36.7188 78.9628 35.4336 81.9892 34.1484C84.924 32.8633 87.9504 31.5781 90.9769 30.5684C92.7194 30.0176 94.5536 29.5586 96.2961 29.1914C96.3878 29.1914 96.2961 29.2832 96.1127 29.2832ZM99.3226 28.7324C97.1215 30.6602 94.9205 32.6797 92.6277 34.5156C89.7847 36.8106 86.9416 39.0137 84.0069 41.0332C81.1638 42.9609 78.3208 44.5215 75.1109 45.5313C72.3596 46.3574 69.4249 47.3672 66.4901 46.7246C66.3984 46.4492 66.3067 46.2656 66.215 45.9902C67.5907 45.6231 68.8746 44.7969 70.1586 44.1543C71.7176 43.3281 73.185 42.502 74.7441 41.6758C77.5871 40.207 80.5219 38.6465 83.3649 37.1777C86.2079 35.709 89.1427 34.1484 91.9857 32.6797C93.5448 31.8535 95.1039 31.0273 96.663 30.293C97.4884 29.6504 98.4972 29.2832 99.3226 28.7324ZM85.6577 42.9609C82.9981 44.7051 80.0633 46.1738 77.0369 47.0918C74.0104 48.0098 70.2503 48.9277 67.2238 47.6426C67.1321 47.5508 67.1321 47.459 67.0404 47.3672C69.4249 47.7344 71.7176 47.1836 74.1021 46.541C77.4037 45.6231 80.4302 44.3379 83.3649 42.4102C86.3914 40.3906 89.3261 38.1875 92.0774 35.8926C94.0034 34.2402 96.021 32.6797 97.9469 30.8438C94.2785 35.4336 90.5183 39.7481 85.6577 42.9609ZM93.7282 37.8203C91.0686 40.7578 87.9504 43.2363 84.7406 45.5313C81.439 47.918 77.8623 50.3047 73.7353 50.3965C71.9011 50.3965 69.9751 49.9375 68.5078 48.9277C70.7088 49.3867 73.2767 48.8359 75.2944 48.377C78.7794 47.6426 82.1727 46.1738 85.1991 44.1543C89.6929 41.3086 93.6365 37.4531 97.0298 33.2305C96.1127 34.8828 95.0122 36.4434 93.7282 37.8203ZM108.219 24.3262C108.86 24.1426 109.502 23.6836 110.053 23.3164C110.144 23.3164 110.144 23.2246 110.236 23.1328C110.878 22.8574 111.428 22.582 112.07 22.3066C113.263 21.7559 114.363 21.2051 115.555 20.6543C115.647 20.6543 115.739 20.6543 115.739 20.6543C118.032 19.7363 120.324 18.543 122.434 17.2578C123.351 16.7988 124.176 16.4316 125.093 15.9727C126.652 15.1465 128.211 14.4121 129.862 13.5859C129.771 13.5859 129.771 13.6777 129.679 13.6777C122.709 17.8086 115.189 20.7461 108.127 24.5098C108.035 24.418 108.035 24.3262 107.943 24.2344C108.035 24.418 108.127 24.418 108.219 24.3262ZM127.019 9.45508C127.845 8.9961 128.762 8.53711 129.587 8.07813L129.495 8.16993C128.487 8.8125 127.478 9.45508 126.469 10.0059C125.827 10.2813 125.185 10.5566 124.451 10.832C125.368 10.3731 126.194 9.91407 127.019 9.45508ZM133.714 12.3926C134.998 11.6582 136.19 10.832 137.474 10.0977C138.116 9.73047 138.758 9.36329 139.308 8.9043C139.492 8.8125 141.693 7.25196 142.243 7.61915V7.71094C142.152 7.80274 142.151 7.89454 142.06 7.89454C141.876 7.80274 141.693 7.80274 141.51 7.89454C138.116 10.5566 134.356 12.4844 130.413 14.2285C131.605 13.7695 132.705 13.127 133.714 12.3926ZM108.494 25.5195C109.686 24.9688 110.878 24.418 112.07 23.8672C110.878 24.5098 109.778 25.1523 108.494 25.7031C108.585 25.6113 108.494 25.6113 108.494 25.5195ZM64.7476 44.6133C64.931 47.3672 67.4989 49.9375 69.9751 50.8555C73.9187 52.2324 78.1374 50.8555 81.5307 48.8359C85.6577 46.3574 89.4178 42.9609 92.9945 39.7481C95.6541 37.2695 99.0474 33.2305 99.8728 29.834C99.9646 29.4668 100.056 28.6406 100.056 28.6406C103.541 26.8047 106.935 24.7852 107.21 25.2441C107.393 25.6113 108.31 27.7227 108.585 27.5391C108.677 27.5391 140.317 11.0156 142.151 9.36329C142.702 9.08789 143.069 8.62891 143.344 8.16993C143.344 8.16993 143.344 8.16993 143.435 8.07813C143.527 7.98633 143.527 7.89454 143.527 7.80274C143.802 7.06836 143.344 5.50782 143.344 5.50782C143.16 4.68164 141.968 3.0293 141.785 2.9375C140.868 2.57032 140.317 2.47852 138.758 2.9375C136.557 3.58008 104.825 20.6543 105.1 21.1133C105.467 21.8477 106.384 23.5 106.384 23.5C103.816 24.7852 101.982 25.7031 99.4143 26.8965C96.663 26.2539 94.6453 26.6211 93.0862 26.8047C91.8023 26.9883 90.7018 27.1719 89.4178 27.1719C83.0898 27.3555 76.5783 27.6309 70.5254 29.6504C67.1321 30.752 63.0051 32.5879 61.9963 36.4434C61.1709 39.1973 62.4549 42.7773 64.7476 44.6133Z" fill="#754532"/>
<path fill-rule="evenodd" clip-rule="evenodd" d="M90.7936 11.4746C89.693 12.668 88.3174 12.4844 86.2997 12.5762C86.3915 12.209 86.3915 11.9336 86.3915 11.5664C86.3915 11.4746 86.208 11.3828 86.208 11.4746C85.8412 12.209 85.6578 13.0352 85.3826 13.8613C85.0158 14.6875 84.649 15.4219 84.1904 16.248C82.9065 15.3301 82.2645 13.3105 82.1728 12.3926C82.0811 11.4746 77.7707 11.75 77.037 11.5664C77.4038 11.291 77.6789 10.9238 78.0458 10.4648C78.6878 9.82227 79.3297 8.9961 79.7883 8.16992C79.6966 8.35352 79.7883 8.44531 79.7883 8.62891C79.88 8.9043 80.2468 8.62891 80.1551 8.44531C79.7883 7.52735 79.4215 6.60938 79.1463 5.69141C78.9629 4.95703 78.5961 3.94727 78.6878 3.21289C79.7883 3.48828 82.1728 4.58985 83.1816 5.04883C83.9153 5.32422 85.3826 3.94727 85.9329 3.58008C86.5749 3.1211 87.3086 2.66211 87.9505 2.20313C87.9505 3.21289 88.2257 4.22266 87.9505 5.23242C87.5837 6.79297 87.1251 7.80274 87.2169 7.52735C87.5837 8.8125 89.9682 10.373 91.0687 11.1992C91.1604 11.1992 90.8853 11.4746 90.7936 11.4746ZM88.9594 12.668C89.5096 12.3926 90.0599 12.1172 90.6102 11.75C90.1516 12.1172 89.5096 12.3926 88.9594 12.668ZM88.2257 7.16016C88.4091 6.70117 88.6842 3.1211 88.3174 2.01953C88.3174 1.83594 88.2257 1.65235 88.0423 1.74414C88.0423 1.74414 87.9505 1.74414 87.8588 1.74414C86.9417 1.92774 83.365 4.13086 83.2733 4.22266C81.8976 3.48828 78.7795 2.75391 78.6878 2.75391L78.596 2.84571C78.5043 2.84571 78.5043 2.84571 78.5043 2.9375C78.5043 2.9375 78.3209 4.49805 78.4126 5.23242C78.5043 5.875 78.8712 7.52735 78.8712 7.71094C77.7707 8.72071 76.7618 10.373 75.9364 11.5664C75.8447 11.75 76.3033 11.9336 76.3033 11.9336C76.3033 12.0254 79.3297 12.7598 80.7971 12.8516C81.1639 13.6777 81.7142 14.3203 82.1728 15.0547C82.6313 15.6973 83.0899 16.4316 83.6401 17.0742C83.7318 17.166 84.1904 16.7988 84.1904 16.7988C84.8324 15.9727 85.4744 14.8711 85.8412 13.7695C86.7583 14.0449 88.0423 13.4941 88.9594 13.2188C89.9682 12.8516 90.8853 12.3926 91.4355 11.4746C91.4355 11.3828 91.4355 11.3828 91.4355 11.3828C91.7107 11.1992 88.6842 7.80274 88.2257 7.16016Z" fill="#754532"/>
<path fill-rule="evenodd" clip-rule="evenodd" d="M120.599 33.4141C117.665 37.9121 117.023 43.6953 117.39 48.9277C119.866 48.1016 122.709 48.4688 125.277 48.4688C128.303 48.4688 131.421 48.4688 134.356 47.459C137.016 46.541 140.592 44.4297 140.592 41.2168C140.592 39.4727 139.4 37.9121 138.024 36.9023C136.741 35.9844 135.548 35.709 134.173 35.8926C133.439 36.168 132.614 36.4434 131.788 36.627C131.513 36.7188 131.33 36.4434 131.421 36.2598C132.338 33.5059 132.43 28.8242 128.578 28.3652C125.368 27.9063 122.159 31.0273 120.599 33.4141ZM134.906 48.5606C133.897 48.9277 132.889 49.1113 131.88 49.2949C129.312 49.6621 126.652 49.4785 124.084 49.5703C122.892 49.5703 121.792 49.6621 120.599 49.8457C119.407 50.0293 118.307 50.3965 117.206 50.6719V50.7637C120.966 49.4785 124.91 50.3965 128.762 50.2129C130.871 50.1211 132.98 49.5703 134.906 48.5606ZM130.596 28.3652C132.797 30.0176 132.98 32.9551 132.247 35.4336C132.98 35.0664 133.897 35.0664 134.723 35.1582C136.741 34.791 139.217 36.8105 140.226 38.2793C141.234 39.6563 141.418 41.125 141.051 42.502C141.051 42.502 141.051 42.502 141.051 42.5938C140.592 46.9082 134.998 49.8457 131.238 50.6719C126.469 51.7734 121.517 50.0293 116.931 51.8652C116.931 51.957 116.748 52.0488 116.656 51.957C116.472 51.957 116.197 51.7734 116.289 51.498C116.289 51.3145 116.381 51.1309 116.381 50.9473C116.197 50.0293 116.197 49.0195 116.381 48.1016C116.014 45.2559 116.564 42.2266 117.206 39.5645C118.032 36.0762 119.499 32.7715 122.159 30.3848C124.36 28.3652 127.936 26.3457 130.596 28.3652Z" fill="#754532"/>
<path fill-rule="evenodd" clip-rule="evenodd" d="M113.904 2.47852C112.987 1.83594 111.612 2.29492 111.428 3.39648V3.48828C111.428 3.58008 111.428 3.58008 111.428 3.67188C111.428 3.76367 111.428 3.76367 111.52 3.85547C111.52 3.94727 111.52 4.03906 111.612 4.13086C111.612 4.13086 111.612 4.13086 111.612 4.22266C111.52 4.68164 111.612 5.14063 111.795 5.50781C112.345 6.33398 113.538 6.51758 114.363 5.9668C115.188 5.32422 115.28 4.22266 114.73 3.39648C114.638 3.21289 114.455 3.0293 114.271 2.9375C114.18 2.75391 113.996 2.66211 113.904 2.47852Z" fill="#754532"/>
<path fill-rule="evenodd" clip-rule="evenodd" d="M143.802 25.7031C142.794 24.9688 141.143 24.6016 140.226 25.6113V25.7031C141.693 25.5195 142.977 25.7031 144.077 26.8047C144.995 27.7227 145.361 29.0078 146.003 30.0176C146.095 30.1094 146.187 30.0176 146.187 29.9258C146.003 28.3652 145.178 26.6211 143.802 25.7031Z" fill="#754532"/>
<path fill-rule="evenodd" clip-rule="evenodd" d="M141.143 28.1816C140.226 28.2734 140.226 29.9258 140.959 29.834C140.959 29.9258 140.959 30.0176 141.051 30.2012C141.143 30.293 141.326 30.3848 141.418 30.293C142.61 29.9258 142.335 28.1816 141.143 28.1816Z" fill="#754532"/>
<path fill-rule="evenodd" clip-rule="evenodd" d="M132.613 21.0215C132.246 21.0215 131.88 21.2969 131.696 21.7559C131.329 22.7656 132.522 23.5918 133.347 23.1328C133.714 23.4082 134.448 23.041 134.264 22.4902C134.172 22.3066 134.081 22.123 133.897 21.8477C133.897 21.6641 133.806 21.3887 133.714 21.2969C133.347 20.8379 132.888 20.7461 132.613 21.0215Z" fill="#754532"/>
<path fill-rule="evenodd" clip-rule="evenodd" d="M80.2466 21.5723C77.8621 20.1953 75.6611 18.8184 73.8269 16.6152C71.9927 14.4121 70.8004 11.75 70.0667 8.99609C70.0667 8.9043 69.8833 8.9043 69.8833 8.99609C70.4336 14.4121 74.8357 20.2871 80.1549 21.8477C80.2466 21.8477 80.3383 21.6641 80.2466 21.5723Z" fill="#754532"/>
<path fill-rule="evenodd" clip-rule="evenodd" d="M105.008 40.207C104.917 40.207 104.825 40.207 104.733 40.1152C104.55 39.8398 104.275 39.5644 103.908 39.4726C104.366 39.5644 104.733 39.8398 105.008 40.207ZM105.926 42.2266C105.926 42.043 105.834 41.8594 105.742 41.6758C105.742 41.4922 105.65 41.4004 105.559 41.3086C105.559 41.2168 105.559 41.125 105.559 41.0332C105.834 41.3086 106.017 41.7676 105.926 42.2266ZM104.917 43.5117C104.642 43.6035 104.366 43.6953 104.183 43.6953L104.275 43.6035C104.366 43.5117 104.458 43.4199 104.55 43.2363C104.917 43.1445 105.192 42.8691 105.467 42.5937C105.375 42.9609 105.192 43.2363 104.917 43.5117ZM104.275 42.5019C104.183 42.5937 104.091 42.5937 103.908 42.5937C103.633 42.5937 103.449 42.5937 103.266 42.5019C103.266 42.2266 103.266 41.9512 103.358 41.7676C103.541 41.6758 103.725 41.584 103.816 41.4922C103.908 41.584 104.091 41.7676 104.183 41.8594C104.275 42.043 104.366 42.3183 104.275 42.5019ZM102.716 39.8398C102.899 39.748 103.174 39.748 103.449 39.8398C103.633 39.8398 103.816 40.0234 104 40.1152C103.633 40.1152 103.358 40.1152 103.083 40.207C102.991 40.207 102.807 40.2988 102.716 40.3906C102.624 40.3906 102.532 40.4824 102.349 40.4824C102.257 40.4824 102.257 40.5742 102.165 40.5742C102.257 40.207 102.441 40.0234 102.716 39.8398ZM102.899 39.3809C102.165 39.4726 101.707 40.207 101.615 41.0332C101.248 41.6758 101.432 42.5019 101.982 42.9609C101.982 43.1445 102.074 43.4199 102.257 43.6035C102.624 44.0625 103.174 44.0625 103.633 43.8789C104 44.1543 104.55 44.1543 105.192 43.7871C105.467 43.6035 105.65 43.4199 105.742 43.1445C105.926 42.8691 106.109 42.5937 106.201 42.3183C106.384 41.584 106.109 40.7578 105.467 40.2988C105.1 39.4726 104 38.8301 102.899 39.3809Z" fill="#754532"/>
<path fill-rule="evenodd" clip-rule="evenodd" d="M99.2306 13.9531C99.1389 14.3203 99.1389 14.6875 99.3224 15.0547C99.4141 15.2383 99.6892 15.4219 99.9643 15.4219H100.056C100.881 15.6055 101.432 14.7793 101.065 14.0449C100.606 13.4024 99.5975 13.0352 99.2306 13.9531Z" fill="#754532"/>
<path fill-rule="evenodd" clip-rule="evenodd" d="M115.739 29.5586C113.354 31.1191 111.979 34.2402 111.337 36.8105C110.42 40.4824 111.062 44.5215 111.795 48.1934C111.795 48.4687 112.162 48.3769 112.162 48.1934C112.254 44.7051 111.245 41.3086 111.795 37.8203C112.346 34.5156 114.088 32.3125 115.922 29.7422C116.014 29.6504 115.922 29.4668 115.739 29.5586Z" fill="#754532"/>
</svg>
