<svg id="Layer_1" enable-background="new 0 0 56.689 56.689" height="512" viewBox="0 0 56.689 56.689" width="512" xmlns="http://www.w3.org/2000/svg"><g><path d="m25.29 8.377-10.835 10.828c-.85.85-1.318 1.979-1.318 3.182s.468 2.332 1.318 3.182c.85.851 1.979 1.318 3.182 1.318s2.332-.468 3.182-1.318l3.027-3.027v22.47c0 2.482 2.019 4.5 4.5 4.5 2.482 0 4.5-2.018 4.5-4.5v-22.469l3.027 3.025c.85.851 1.979 1.318 3.182 1.318 1.201 0 2.332-.468 3.182-1.317s1.318-1.979 1.318-3.182-.47-2.331-1.319-3.182l-10.707-10.708c-.273-.255-1.331-1.184-2.976-1.258-1.797-.081-3.005.915-3.263 1.138zm4.825 1.535 10.707 10.708c.945.945.943 2.591 0 3.535-.473.473-1.1.732-1.768.732s-1.297-.26-1.768-.732l-6.441-6.44v27.297c0 1.379-1.121 2.5-2.5 2.5s-2.5-1.121-2.5-2.5v-27.299l-6.441 6.441c-.473.473-1.1.732-1.768.732s-1.295-.26-1.768-.732c-.946-.945-.944-2.59 0-3.535l10.649-10.65c.161-.139.89-.737 1.963-.688.858.04 1.44.472 1.635.631z"/></g></svg>