<svg width="94" height="69" viewBox="0 0 94 69" fill="none" xmlns="http://www.w3.org/2000/svg">
<path d="M59.1849 69V63.6C67.1004 59.4667 72.7353 55.1333 76.0893 50.6C79.4434 46.2 81.1204 41.3333 81.1204 36C81.1204 32.9333 80.7179 30.8 79.9129 29.6C78.9738 28.4 77.9676 27.8 76.8943 27.8C75.821 27.8 74.2781 28.1333 72.2657 28.8C70.2533 29.4667 68.4421 29.8 66.8321 29.8C63.0756 29.8 59.8557 28.4 57.1724 25.6C54.355 22.9333 52.9463 19.6667 52.9463 15.8C52.9463 13.6667 53.4159 11.6 54.355 9.6C55.16 7.73333 56.3674 6.06667 57.9774 4.6C59.5873 3.26667 61.4656 2.13333 63.6122 1.2C65.7588 0.399994 68.0396 0 70.4545 0C73.4061 0 76.2906 0.666664 79.108 1.99999C81.9254 3.46666 84.4745 5.4 86.7552 7.8C88.9018 10.2 90.6459 13 91.9876 16.2C93.3292 19.5333 94 23.1333 94 27C94 31.5333 93.2621 35.9333 91.7863 40.2C90.1764 44.4667 87.8956 48.4 84.944 52C81.9925 55.7333 78.3701 59.0667 74.0769 62C69.6495 64.9333 64.6855 67.2667 59.1849 69ZM6.43979 68.6V63.6C11.1355 60.9333 14.9591 58.4667 17.9107 56.2C20.7281 53.9333 22.9418 51.6667 24.5517 49.4C26.1617 47.2667 27.302 45.0667 27.9729 42.8C28.5095 40.5333 28.7778 38 28.7778 35.2C28.7778 32.5333 28.3083 30.6 27.3691 29.4C26.2958 28.2 25.2225 27.6 24.1492 27.6C23.0759 27.6 21.6001 27.9333 19.7219 28.6C17.7094 29.4 15.697 29.8 13.6846 29.8C10.1963 29.8 7.04352 28.4667 4.2261 25.8C1.40869 23.2667 0 20.0667 0 16.2C0 14.0667 0.469559 12 1.4087 10C2.34783 8.13334 3.62238 6.4 5.23232 4.8C6.84228 3.33333 8.72055 2.13333 10.8671 1.2C13.0137 0.399994 15.3616 0 17.9107 0C20.8623 0 23.7467 0.666664 26.5642 1.99999C29.2474 3.33333 31.6623 5.2 33.8089 7.6C35.9555 10 37.6996 12.8 39.0413 16C40.3829 19.2 41.0537 22.7333 41.0537 26.6C41.0537 31.2667 40.3158 35.8 38.84 40.2C37.2301 44.6 34.9493 48.6 31.9977 52.2C29.0462 55.9333 25.4238 59.2 21.1306 62C16.8374 64.8 11.9405 67 6.43979 68.6Z" fill="#F3EEF4"/>
</svg>
