<svg width="94" height="69" viewBox="0 0 94 69" fill="none" xmlns="http://www.w3.org/2000/svg">
<path d="M34.8151 0V5.4C26.8996 9.53333 21.2647 13.8667 17.9107 18.4C14.5566 22.8 12.8796 27.6667 12.8796 33C12.8796 36.0667 13.2821 38.2 14.0871 39.4C15.0262 40.6 16.0324 41.2 17.1057 41.2C18.179 41.2 19.7219 40.8667 21.7343 40.2C23.7467 39.5333 25.5579 39.2 27.1679 39.2C30.9244 39.2 34.1443 40.6 36.8276 43.4C39.645 46.0667 41.0537 49.3333 41.0537 53.2C41.0537 55.3333 40.5841 57.4 39.645 59.4C38.84 61.2667 37.6326 62.9333 36.0226 64.4C34.4127 65.7333 32.5344 66.8667 30.3878 67.8C28.2412 68.6 25.9604 69 23.5455 69C20.5939 69 17.7094 68.3333 14.892 67C12.0746 65.5333 9.52553 63.6 7.24477 61.2C5.09817 58.8 3.35406 56 2.01244 52.8C0.670812 49.4667 0 45.8667 0 42C0 37.4667 0.737893 33.0667 2.21368 28.8C3.82363 24.5333 6.10439 20.6 9.05596 17C12.0075 13.2667 15.6299 9.93333 19.9231 7C24.3505 4.06667 29.3145 1.73333 34.8151 0ZM87.5602 0.4V5.4C82.8645 8.06667 79.0409 10.5333 76.0893 12.8C73.2719 15.0667 71.0582 17.3333 69.4483 19.6C67.8383 21.7333 66.698 23.9333 66.0271 26.2C65.4905 28.4667 65.2222 31 65.2222 33.8C65.2222 36.4667 65.6917 38.4 66.6309 39.6C67.7042 40.8 68.7775 41.4 69.8508 41.4C70.9241 41.4 72.3999 41.0667 74.2781 40.4C76.2906 39.6 78.303 39.2 80.3154 39.2C83.8037 39.2 86.9565 40.5333 89.7739 43.2C92.5913 45.7333 94 48.9333 94 52.8C94 54.9333 93.5304 57 92.5913 59C91.6522 60.8667 90.3776 62.6 88.7677 64.2C87.1577 65.6667 85.2794 66.8667 83.1329 67.8C80.9863 68.6 78.6384 69 76.0893 69C73.1377 69 70.2533 68.3333 67.4358 67C64.7526 65.6667 62.3377 63.8 60.1911 61.4C58.0445 59 56.3004 56.2 54.9587 53C53.6171 49.8 52.9463 46.2667 52.9463 42.4C52.9463 37.7333 53.6842 33.2 55.16 28.8C56.7699 24.4 59.0507 20.4 62.0023 16.8C64.9538 13.0667 68.5762 9.8 72.8694 7C77.1626 4.2 82.0595 2 87.5602 0.4Z" fill="#F3EEF4"/>
</svg>
