<svg width="164" height="153" viewBox="0 0 164 153" fill="none" xmlns="http://www.w3.org/2000/svg">
<path d="M129.226 131.71C124.229 134.469 118.921 136.384 113.364 136.992C106.482 137.702 99.7563 136.878 93.5349 134.002C87.1417 131.009 81.3637 126.543 74.4993 124.994C67.7791 123.416 63.6953 127.054 56.9248 128.345C42.2504 133.478 22.0874 124.154 25.3371 101.267C25.8252 97.563 29.4434 94.6162 30.0755 90.8847C31.3064 84.0299 26.9192 78.2463 24.7205 72.1959C22.2116 65.3018 21.232 57.8153 22.6956 50.6152C24.5196 41.3904 30.2105 34.4374 38.1283 29.768C47.8081 24.1608 59.3098 24.9768 68.8455 19.3971C77.7164 14.2451 85.5347 7.48831 96.7038 10.4742C103.308 12.2241 109.169 17.1248 111.999 23.3557C114.292 28.335 113.499 34.354 116.197 39.1057C118.523 43.4768 123.055 45.3209 127.21 47.5378C144.86 57.1116 156.798 72.7398 154.684 93.7555C153.275 109.07 142.835 124 129.226 131.71Z" fill="#E3CAE7"/>
<path d="M87.2562 89.5779V61.3449C87.2562 60.8226 86.833 60.3994 86.3107 60.3994C85.7884 60.3994 85.3652 60.8226 85.3652 61.3449V89.5779C85.3652 90.1002 85.7884 90.5234 86.3107 90.5234C86.833 90.5234 87.2562 90.1002 87.2562 89.5779Z" fill="white"/>
<path d="M114.676 54.2429C112.677 54.2429 110.186 53.3804 107.549 52.4673C104.209 51.3107 100.423 50 96.4975 50C91.9546 50 89.1832 51.9907 87.6583 53.6608C87.0879 54.2855 86.6459 54.9116 86.3109 55.4669C85.9758 54.9116 85.5338 54.2855 84.9634 53.6608C83.4384 51.9907 80.6671 50 76.1242 50C72.1981 50 68.4125 51.3107 65.0727 52.4673C62.4353 53.3804 59.9444 54.2429 57.9455 54.2429C57.4232 54.2429 57 54.6661 57 55.1884V93.2725C57 93.7948 57.4232 94.218 57.9455 94.218C60.2626 94.218 62.8996 93.3049 65.6912 92.3382C68.8902 91.2306 72.516 89.975 76.124 89.975C79.2177 89.975 81.7217 90.9995 83.5667 93.0198C83.9187 93.4053 84.5169 93.4324 84.9025 93.0803C85.2882 92.7282 85.3152 92.1302 84.9631 91.7445C83.438 90.0746 80.6667 88.0839 76.124 88.0839C72.1978 88.0839 68.4123 89.3946 65.0725 90.5512C62.8367 91.3256 60.7059 92.0632 58.891 92.27V56.0871C60.97 55.889 63.2725 55.0916 65.6912 54.2542C68.8902 53.1465 72.516 51.891 76.124 51.891C83.4209 51.891 85.33 57.6853 85.4068 57.9289C85.5289 58.3258 85.8955 58.5968 86.3107 58.5968C86.726 58.5968 87.0926 58.3259 87.2146 57.9289C87.233 57.8685 89.1539 51.891 96.4975 51.891C100.105 51.891 103.731 53.1465 106.93 54.2542C109.349 55.0917 111.651 55.889 113.73 56.0871V92.27C111.916 92.0632 109.785 91.3256 107.549 90.5513C104.209 89.3948 100.423 88.084 96.4975 88.084C91.9545 88.084 89.1831 90.0748 87.6583 91.7448C87.3062 92.1306 87.3333 92.7285 87.7188 93.0806C88.1045 93.4327 88.7026 93.4056 89.0546 93.0201C90.8996 90.9996 93.4037 89.9752 96.4975 89.9752C100.105 89.9752 103.731 91.2307 106.93 92.3383C109.722 93.305 112.359 94.2181 114.676 94.2181C115.198 94.2181 115.621 93.7949 115.621 93.2726V55.1884C115.621 54.6663 115.198 54.2429 114.676 54.2429Z" fill="white"/>
<path d="M114.676 96.1091C112.677 96.1091 110.186 95.2466 107.549 94.3335C104.209 93.1769 100.423 91.8662 96.4975 91.8662C92.231 91.8662 89.5271 93.6221 87.9506 95.2191L84.6707 95.219C83.0942 93.622 80.3902 91.8662 76.124 91.8662C72.1978 91.8662 68.4123 93.1769 65.0725 94.3335C62.4353 95.2466 59.9444 96.1091 57.9455 96.1091C57.4232 96.1091 57 96.5324 57 97.0547C57 97.5769 57.4232 98.0002 57.9455 98.0002C60.2626 98.0002 62.8996 97.0871 65.6912 96.1204C68.8902 95.0127 72.516 93.7572 76.124 93.7572C79.2177 93.7572 81.7217 94.7817 83.5667 96.802C83.7459 96.9982 83.9993 97.1099 84.2649 97.1099L88.3563 97.11C88.6219 97.11 88.8753 96.9982 89.0545 96.8021C90.8995 94.7817 93.4035 93.7572 96.4974 93.7572C100.105 93.7572 103.731 95.0127 106.93 96.1204C109.722 97.0871 112.359 98.0002 114.676 98.0002C115.198 98.0002 115.621 97.5769 115.621 97.0547C115.621 96.5324 115.198 96.1091 114.676 96.1091Z" fill="white"/>
<circle cx="11.1977" cy="86.1977" r="9.19774" fill="#E3CAE7"/>
<circle cx="5.43503" cy="55.435" r="5.43503" fill="#E3CAE7"/>
<circle cx="139.379" cy="27.3785" r="13.3785" fill="#E3CAE7"/>
</svg>
