<svg width="148" height="143" viewBox="0 0 148 143" fill="none" xmlns="http://www.w3.org/2000/svg">
<path d="M34.0195 14.8719C39.4455 13.0984 45.0181 12.2116 50.5908 12.655C57.4833 13.2462 63.9358 15.3153 69.5085 19.3057C75.2278 23.444 80.0672 28.9124 86.5198 31.7205C92.8257 34.5286 97.5184 31.7205 104.411 31.7205C119.787 29.4271 137.847 42.3618 130.368 64.2354C129.195 67.7825 125.088 69.9994 123.769 73.5465C121.276 80.0494 124.502 86.5524 125.528 92.9076C126.702 100.15 126.262 107.687 123.475 114.486C119.956 123.206 113.063 128.97 104.411 132.073C93.8522 135.768 82.7069 132.812 72.2948 136.507C62.616 139.906 53.6704 145.079 43.2583 140.054C37.0991 137.098 32.2597 131.186 30.6465 124.536C29.3267 119.215 31.2331 113.451 29.4733 108.278C28.0069 103.549 23.9007 100.889 20.2345 97.9326C4.68967 85.2223 -4.10927 67.6347 1.90334 47.3868C6.15616 32.6073 19.2079 19.8969 34.0195 14.8719Z" fill="#E3CAE7"/>
<circle cx="138.801" cy="82.7798" r="9.19774" fill="#E3CAE7"/>
<circle cx="16.3042" cy="114.972" r="5.43503" fill="#E3CAE7"/>
<circle cx="93.6486" cy="13.3785" r="13.3785" fill="#E3CAE7"/>
<path d="M83.4 53.3376H78.3333V51.071C78.3333 50.3376 77.5334 50.0043 76.8 50.0043H72.8668C71.9335 47.3376 69.6001 46.0043 66.9335 46.0043C64.2961 45.9052 61.8973 47.5223 61.0001 50.0043H57.1335C56.4001 50.0043 55.6668 50.3376 55.6668 51.071V53.3376H50.6C47.5975 53.3696 45.1411 55.7382 45 58.7375V96.9374C45 99.8708 47.6667 102.004 50.6 102.004H83.4C86.3333 102.004 89 99.8708 89 96.9374V58.7377C88.8589 55.7382 86.4025 53.3696 83.4 53.3376ZM58.3333 52.671H62C62.6401 52.5929 63.1542 52.106 63.2668 51.471C63.6616 49.7517 65.17 48.5175 66.9335 48.471C68.6806 48.524 70.1663 49.762 70.5334 51.471C70.653 52.1279 71.201 52.6211 71.8667 52.671H75.6668V58.0043H58.3333V52.671ZM86.3333 96.9375C86.3333 98.4042 84.8667 99.3375 83.4 99.3375H50.6C49.1333 99.3375 47.6667 98.4042 47.6667 96.9375V58.7377C47.8027 57.211 49.0675 56.0323 50.6 56.0044H55.6667V59.4044C55.7371 60.1514 56.3841 60.7102 57.1333 60.6711H76.7999C77.563 60.7128 78.2302 60.1617 78.3332 59.4044V56.0043H83.3998C84.9322 56.0323 86.1972 57.2109 86.3332 58.7375V96.9375H86.3333Z" fill="white"/>
<path d="M61.8666 75.8034C61.3665 75.2762 60.5364 75.2465 59.9999 75.7368L55.7332 79.8034L53.9332 77.9367C53.4331 77.4095 52.603 77.3799 52.0665 77.87C51.5501 78.4111 51.5501 79.2623 52.0665 79.8034L54.7998 82.6034C55.0364 82.8683 55.3781 83.0148 55.7331 83.0034C56.0848 82.9985 56.4202 82.8546 56.6664 82.6034L61.8664 77.6701C62.3819 77.1972 62.4163 76.3958 61.9433 75.8804C61.9191 75.8535 61.8934 75.8279 61.8666 75.8034Z" fill="white"/>
<path d="M81.0001 78.6709H65.6668C64.9304 78.6709 64.3335 79.2678 64.3335 80.0042C64.3335 80.7406 64.9304 81.3376 65.6668 81.3376H81.0001C81.7365 81.3376 82.3334 80.7406 82.3334 80.0042C82.3334 79.2678 81.7365 78.6709 81.0001 78.6709Z" fill="white"/>
<path d="M61.8666 65.1364C61.3665 64.6093 60.5364 64.5795 59.9999 65.0698L55.7332 69.1364L53.9332 67.2697C53.4331 66.7425 52.603 66.7128 52.0665 67.2031C51.5501 67.7441 51.5501 68.5953 52.0665 69.1364L54.7998 71.9364C55.0364 72.2013 55.3781 72.3478 55.7331 72.3364C56.0848 72.3315 56.4202 72.1876 56.6664 71.9364L61.8664 67.0031C62.3819 66.5302 62.4163 65.7288 61.9433 65.2135C61.9191 65.1865 61.8934 65.1609 61.8666 65.1364Z" fill="white"/>
<path d="M81.0001 68.0049H65.6668C64.9304 68.0049 64.3335 68.6018 64.3335 69.3382C64.3335 70.0746 64.9304 70.6715 65.6668 70.6715H81.0001C81.7365 70.6715 82.3334 70.0746 82.3334 69.3382C82.3334 68.6018 81.7365 68.0049 81.0001 68.0049Z" fill="white"/>
<path d="M61.8666 86.4703C61.3665 85.9432 60.5364 85.9136 59.9999 86.4037L55.7332 90.4703L53.9332 88.6036C53.4331 88.0765 52.603 88.0469 52.0665 88.537C51.5501 89.078 51.5501 89.9293 52.0665 90.4703L54.7998 93.2703C55.0364 93.5352 55.3781 93.6817 55.7331 93.6703C56.0848 93.6654 56.4202 93.5216 56.6664 93.2703L61.8664 88.337C62.3819 87.8641 62.4163 87.0628 61.9433 86.5474C61.9191 86.5206 61.8934 86.4949 61.8666 86.4703Z" fill="white"/>
<path d="M81.0001 89.3379H65.6668C64.9304 89.3379 64.3335 89.9348 64.3335 90.6712C64.3335 91.4076 64.9304 92.0046 65.6668 92.0046H81.0001C81.7365 92.0046 82.3334 91.4076 82.3334 90.6712C82.3334 89.9348 81.7365 89.3379 81.0001 89.3379Z" fill="white"/>
</svg>
