<svg width="148" height="155" viewBox="0 0 148 155" fill="none" xmlns="http://www.w3.org/2000/svg">
<path d="M140.337 51.1951C141.349 56.8133 141.461 62.455 140.257 67.9139C138.724 74.6598 135.788 80.7669 131.07 85.7384C126.185 90.835 120.104 94.8772 116.436 100.883C112.788 106.743 114.925 111.777 113.978 118.604C114.137 134.15 98.8435 150.261 78.2048 139.848C74.8526 138.198 73.2208 133.827 69.8887 132.032C63.7899 128.669 56.9053 130.971 50.4694 131.115C43.1349 131.282 35.7293 129.811 29.378 126.117C21.2244 121.433 16.462 113.813 14.5765 104.817C12.3673 93.8506 16.8264 83.2171 14.5971 72.3961C12.5598 62.342 8.66509 52.7706 15.073 43.1476C18.8471 37.4529 25.3677 33.4716 32.177 32.7875C37.6285 32.2112 43.0759 34.8914 48.4415 33.859C53.3275 33.0562 56.5268 29.3545 59.9583 26.1291C74.6838 12.478 93.3135 6.17888 112.543 14.9163C126.598 21.1594 137.395 35.8336 140.337 51.1951Z" fill="#E3CAE7"/>
<circle cx="62.1977" cy="145.198" r="9.19774" fill="#E3CAE7"/>
<circle cx="24.3042" cy="111.971" r="5.43503" fill="#E3CAE7"/>
<circle cx="43.3785" cy="14.3785" r="13.3785" fill="#E3CAE7"/>
<path d="M98.516 80.9924V64.7332C98.516 61.6896 97.3655 58.7948 95.2764 56.5821C94.9644 56.2517 94.4437 56.2366 94.1132 56.5487C93.7827 56.8607 93.7678 57.3814 94.0797 57.7118C95.8792 59.6178 96.8702 62.1114 96.8702 64.7332V80.8932H94.6851C94.6851 80.8932 94.6862 72.0564 94.6827 72.0257C94.6333 69.6535 92.7183 67.7331 90.3483 67.6747C90.3483 67.6747 90.3483 60.4433 90.3482 60.4412C90.347 58.4071 88.6919 56.7525 86.6574 56.7525H59.5145C57.4794 56.7525 55.8237 58.4083 55.8237 60.4436V67.6747C53.4225 67.7338 51.4869 69.7041 51.487 72.1204V80.8932H49.3018V64.7333C49.3018 59.0922 53.8912 54.5028 59.5323 54.5028H86.6397C88.4148 54.5028 90.1636 54.9646 91.6968 55.8384C92.0916 56.0634 92.5941 55.9257 92.819 55.5309C93.0439 55.136 92.9063 54.6336 92.5115 54.4086C90.7304 53.3937 88.6999 52.8571 86.6395 52.8571H76.9187V51.8329C76.9187 49.7194 75.1993 48 73.0858 48C70.9723 48 69.2529 49.7194 69.2529 51.8329V52.8571H59.5323C52.9838 52.8571 47.6561 58.1848 47.6561 64.7333V80.9925C46.1338 81.3631 45 82.7373 45 84.3721C45 86.2904 46.5606 87.851 48.4789 87.851H69.4687C69.4641 88.2876 69.4463 88.7097 69.4115 89.1231C69.2939 90.5222 69.0354 92.3012 68.0731 93.6511C67.0262 95.1196 65.3893 95.3362 63.4938 95.587C60.528 95.9793 57.3497 96.8426 55.0648 98.8757C53.6249 100.157 54.5661 102.607 56.4849 102.607C56.4849 102.607 89.6214 102.607 89.687 102.607C91.6113 102.607 92.5434 100.154 91.1071 98.8755C88.8547 96.8717 85.6106 95.9749 82.6782 95.587C80.7827 95.3362 79.1457 95.1197 78.0989 93.6511C77.1366 92.3012 76.8781 90.5222 76.7604 89.1231C76.7256 88.7097 76.7079 88.2877 76.7033 87.8511H97.693C99.6113 87.851 101.172 86.2904 101.172 84.3721C101.172 82.7373 100.038 81.3632 98.516 80.9924ZM73.086 49.6456C74.292 49.6456 75.2733 50.6267 75.2733 51.8327V52.857H70.8989V51.8327H70.8988C70.8988 50.6267 71.8799 49.6456 73.086 49.6456ZM59.5145 58.3982H86.6575C87.7853 58.3982 88.7028 59.3156 88.7028 60.4434C88.7028 61.695 87.7156 62.8396 86.4577 62.9621C85.042 63.1002 83.7727 61.9238 83.7727 60.5084C83.7727 60.0539 83.4043 59.6855 82.9499 59.6855C82.501 59.6855 82.127 60.0596 82.127 60.5084C82.127 61.8475 81.0003 62.9734 79.662 62.9734C78.3028 62.9734 77.1969 61.8677 77.1969 60.5084C77.1969 60.0539 76.8285 59.6855 76.3741 59.6855C75.9335 59.6855 75.5512 60.0551 75.5512 60.5084C75.5512 61.8421 74.4308 62.9734 73.0861 62.9734C71.743 62.9734 70.6211 61.8501 70.6211 60.5084C70.6211 60.0603 70.2455 59.6855 69.7983 59.6855C69.3438 59.6855 68.9754 60.0539 68.9754 60.5084C68.9754 61.8677 67.8697 62.9734 66.5103 62.9734C65.1511 62.9734 64.0453 61.8677 64.0453 60.5084C64.0453 60.0539 63.6768 59.6855 63.2224 59.6855C62.768 59.6855 62.3996 60.0539 62.3996 60.5084C62.3996 61.8419 61.3154 62.9474 59.9829 62.973L59.9367 62.9734C58.7665 62.9734 57.7552 62.0864 57.5206 60.9461C57.2608 59.6837 58.1901 58.3982 59.5145 58.3982ZM57.4693 63.7825C57.4741 63.7861 57.4792 63.7895 57.484 63.7932C58.2855 64.4043 59.3254 64.697 60.3352 64.5979C61.5085 64.4824 62.5424 63.8663 63.2185 62.9683C63.9689 63.9698 65.1651 64.6191 66.51 64.6191C67.8529 64.6191 69.0473 63.972 69.7979 62.9732C70.1733 63.4726 70.6595 63.8842 71.2198 64.1708C71.7801 64.4574 72.4144 64.6192 73.0859 64.6192C74.3657 64.6192 75.6055 63.9956 76.3738 62.9733C77.1244 63.9721 78.3189 64.6192 79.6617 64.6192C80.9397 64.6192 82.1826 63.9969 82.9533 62.9684C83.6443 63.8865 84.709 64.5115 85.9147 64.6066C86.0987 64.6211 86.2831 64.6226 86.4673 64.6121C87.2745 64.5661 88.0601 64.273 88.7027 63.7825V67.6721H57.4693V63.7825ZM55.9343 69.3176H90.2377C91.7827 69.3176 93.0395 70.5745 93.0395 72.1194C93.0395 72.1313 93.0388 72.1433 93.0386 72.1553C93.0224 73.9732 91.4828 75.5685 89.6419 75.5332C87.8659 75.4992 86.3747 73.9845 86.3747 72.2014C86.3747 71.7542 85.9986 71.3786 85.5519 71.3786C85.0974 71.3786 84.729 71.747 84.729 72.2014C84.729 74.0065 83.1987 75.5339 81.3967 75.5339C79.5854 75.5339 78.0642 74.0133 78.0642 72.2014C78.0642 71.747 77.6958 71.3786 77.2414 71.3786C76.787 71.3786 76.4186 71.747 76.4186 72.2014C76.4186 74.0151 74.8973 75.5339 73.0861 75.5339C71.2784 75.5339 69.7536 74.0165 69.7536 72.2014C69.7536 71.747 69.3852 71.3786 68.9308 71.3786C68.4821 71.3786 68.108 71.7523 68.108 72.2014C68.108 74.039 66.613 75.5339 64.7755 75.5339C62.9604 75.5339 61.4431 74.0136 61.4431 72.2014C61.4431 71.747 61.0747 71.3786 60.6203 71.3786C60.184 71.3786 59.7974 71.7475 59.7974 72.2014C59.7974 73.1028 59.4309 73.9271 58.8394 74.5304C58.1949 75.1875 57.2821 75.5628 56.3607 75.5319C56.3546 75.5317 56.3487 75.5312 56.3427 75.5308C54.5695 75.452 53.1324 73.8785 53.1324 72.1193C53.1325 70.5744 54.3894 69.3176 55.9343 69.3176ZM76.759 94.6064C78.221 96.6572 80.3771 96.9424 82.4631 97.2184C84.9792 97.5512 88.0658 98.372 90.0135 100.105C90.241 100.307 90.1816 100.55 90.1455 100.645C90.1093 100.74 89.9923 100.961 89.6872 100.961H56.4849C56.1798 100.961 56.0628 100.74 56.0266 100.645C55.9905 100.55 55.931 100.308 56.1588 100.105C58.1078 98.371 61.187 97.552 63.7096 97.2183C65.7948 96.9424 67.9511 96.6572 69.4131 94.6063C70.6212 92.9117 70.9266 90.744 71.0514 89.2609C71.0901 88.801 71.1116 88.3346 71.1163 87.8509H75.0557C75.0603 88.3348 75.0819 88.801 75.1207 89.261C75.2454 90.7441 75.5508 92.9118 76.759 94.6064ZM97.6931 86.2053H48.4789C47.4681 86.2054 46.6457 85.383 46.6457 84.3721C46.6457 83.3613 47.4681 82.5389 48.4789 82.5389H57.0094C57.4638 82.5389 57.8322 82.1705 57.8322 81.7161C57.8322 81.2617 57.4638 80.8933 57.0094 80.8933H53.1325V75.8743C53.6477 76.3472 54.2607 76.7114 54.9362 76.9336C55.457 77.1049 56.0038 77.1869 56.5518 77.1786C56.5552 77.1786 56.5584 77.1787 56.5618 77.1786C58.0576 77.1304 59.5242 76.4019 60.4448 75.1769C60.5042 75.0977 60.5615 75.0167 60.6162 74.9341C61.067 75.6179 61.6823 76.1839 62.4046 76.5769C64.6491 77.798 67.5248 77.0658 68.9307 74.9402C69.1513 75.2738 69.4113 75.5792 69.7036 75.8503C70.5922 76.6746 71.7812 77.1795 73.0859 77.1795C74.7198 77.1795 76.3221 76.3296 77.2412 74.94C78.1328 76.2883 79.6626 77.1795 81.3965 77.1795C83.026 77.1795 84.6421 76.3199 85.5557 74.9341C86.0052 75.612 86.6165 76.1748 87.332 76.568C88.875 77.416 90.7838 77.3651 92.2815 76.4411C92.5517 76.2745 92.8061 76.0794 93.0394 75.8641V80.8932H60.294C59.8396 80.8932 59.4712 81.2616 59.4712 81.716C59.4712 82.1704 59.8396 82.5388 60.294 82.5388H97.6931C98.7039 82.5388 99.5263 83.3612 99.5263 84.372C99.5263 85.3829 98.7039 86.2053 97.6931 86.2053Z" fill="white"/>
</svg>
