<svg width="30" height="18" viewBox="0 0 30 18" fill="none" xmlns="http://www.w3.org/2000/svg">
<path d="M29.2806 12.128H26.8901C26.8875 12.128 26.885 12.128 26.8824 12.128H24.732V6.24203C24.8791 6.19095 25.0466 6.16247 25.2561 6.16247C25.6533 6.16247 25.9755 5.8338 25.9755 5.4285V3.66984C25.9755 1.64629 24.3618 0 22.3784 0H21.3704C16.875 0.00118387 12 0.000108898 8.62946 0H7.62144C5.63802 0 4.02438 1.64629 4.02438 3.66984V5.4285C4.02438 5.8338 4.34654 6.16247 4.74379 6.16247C4.95329 6.16247 5.12084 6.19095 5.26781 6.24203V12.1279H3.11606H3.11167H0.719411C0.32208 12.1279 0 12.4565 0 12.8618C0 13.2672 0.32208 13.5958 0.719411 13.5958H2.51959L3.17627 16.9548C3.24339 17.2981 3.53871 17.5452 3.8818 17.5452H26.1182C26.4613 17.5452 26.7566 17.2981 26.8237 16.9548L27.4804 13.5958H29.2806C29.6778 13.5958 30 13.2672 30 12.8618C30 12.4566 29.6778 12.128 29.2806 12.128ZM5.46328 3.66991C5.46328 2.45578 6.43146 1.46801 7.62151 1.46801H22.3784C23.5685 1.46801 24.5367 2.45578 24.5367 3.66991V4.77336C23.864 4.93058 23.4406 5.29426 23.0833 5.60098C22.6895 5.93905 22.4294 6.16247 21.8371 6.16247C21.2448 6.16247 20.9846 5.93905 20.5908 5.60098C20.1205 5.19715 19.5352 4.69453 18.4181 4.69453C17.301 4.69453 16.7158 5.19715 16.2456 5.60098C15.8518 5.93905 15.5917 6.16247 14.9996 6.16247C14.4073 6.16247 14.1473 5.93905 13.7535 5.60098C13.2833 5.19715 12.6981 4.69453 11.5809 4.69453C10.4638 4.69453 9.87866 5.19715 9.40845 5.60098C9.01472 5.93905 8.75458 6.16247 8.16251 6.16247C7.57043 6.16247 7.31022 5.93905 6.91663 5.60098C6.55944 5.29426 6.13593 4.93058 5.46349 4.77343L5.46328 3.66991ZM6.70678 7.25968C7.07296 7.47106 7.53331 7.63048 8.16236 7.63048C9.27946 7.63048 9.86463 7.12786 10.3349 6.72403C10.7286 6.38589 10.9887 6.16254 11.5808 6.16254C12.173 6.16254 12.4331 6.38596 12.8269 6.72403C13.2971 7.12786 13.8823 7.63048 14.9994 7.63048C16.1165 7.63048 16.7018 7.12786 17.172 6.72403C17.5658 6.38582 17.8258 6.16254 18.4179 6.16254C19.0102 6.16254 19.2704 6.38596 19.6642 6.72403C20.1344 7.12786 20.7197 7.63048 21.8369 7.63048C22.4663 7.63048 22.9268 7.47099 23.2931 7.25946V12.128H6.70678V7.25968ZM25.5281 16.0774H4.47186L3.98676 13.5959H26.0132L25.5281 16.0774Z" fill="#872991"/>
</svg>
