<svg width="200" height="205" viewBox="0 0 200 205" fill="none" xmlns="http://www.w3.org/2000/svg">
<path d="M196.855 94.607C199.741 90.0748 200.692 84.5764 199.495 79.3379C198.301 74.1012 195.059 69.5584 190.494 66.7264C185.932 63.8805 183.417 58.6612 184.036 53.3198C184.669 47.9853 183.14 42.6178 179.79 38.4186C176.44 34.2177 171.548 31.5322 166.207 30.9602C160.862 30.3778 156.333 26.7697 154.572 21.6899C152.827 16.6084 149.121 12.4371 144.28 10.1056C139.439 7.7758 133.866 7.4776 128.805 9.28248C123.736 11.0734 118.087 9.78471 114.298 5.97092C110.521 2.15016 105.371 0 99.9986 0C94.6258 0 89.4762 2.15016 85.6991 5.97092C81.9097 9.78645 76.2596 11.0752 71.192 9.28248C66.1297 7.47935 60.5598 7.77754 55.7189 10.1073C50.8797 12.4388 47.1723 16.6101 45.4267 21.6899C43.669 26.7715 39.1384 30.383 33.7936 30.9654C28.4504 31.5374 23.5589 34.2229 20.2108 38.4239C16.8608 42.6248 15.3315 47.9906 15.9628 53.3267C16.5836 58.6664 14.0689 63.8857 9.5088 66.7317C4.94341 69.5637 1.70161 74.1046 0.507076 79.3414C-0.689201 84.5782 0.261194 90.0748 3.14377 94.607C6.01937 99.1497 6.01937 104.943 3.14377 109.485C0.25945 114.019 -0.690945 119.518 0.503588 124.755C1.69986 129.993 4.94167 134.536 9.50531 137.368C14.0689 140.214 16.5818 145.433 15.9628 150.773C15.3315 156.109 16.8608 161.475 20.2108 165.676C23.5589 169.877 28.4504 172.562 33.7936 173.134C39.1367 173.715 43.6672 177.324 45.4267 182.403C47.1723 187.484 50.8797 191.655 55.7207 193.987C60.5616 196.318 66.1331 196.615 71.1955 194.812C76.2631 193.017 81.9132 194.306 85.7026 198.123C89.4797 201.944 94.6293 204.094 100.002 204.094C105.375 204.094 110.524 201.944 114.302 198.123C118.091 194.308 123.739 193.019 128.809 194.812C133.869 196.615 139.441 196.317 144.28 193.985C149.121 191.655 152.827 187.484 154.572 182.403C156.332 177.323 160.862 173.711 166.207 173.129C171.548 172.557 176.44 169.871 179.79 165.67C183.14 161.469 184.669 156.104 184.036 150.767C183.417 145.428 185.93 140.209 190.492 137.363C195.057 134.531 198.299 129.988 199.495 124.751C200.692 119.513 199.741 114.014 196.855 109.48C193.983 104.939 193.983 99.1497 196.855 94.607ZM191.584 112.841C193.572 115.966 194.227 119.755 193.402 123.365C192.579 126.974 190.344 130.105 187.198 132.058C180.578 136.187 176.93 143.761 177.83 151.51C178.266 155.188 177.211 158.887 174.902 161.782C172.593 164.676 169.222 166.527 165.541 166.921C157.784 167.768 151.212 173.008 148.661 180.381C147.457 183.883 144.903 186.759 141.567 188.365C138.231 189.971 134.391 190.177 130.903 188.933C123.547 186.33 115.351 188.201 109.853 193.738C107.251 196.371 103.703 197.853 99.9986 197.853C96.2964 197.853 92.7477 196.371 90.1441 193.738C84.6493 188.197 76.4497 186.326 69.0942 188.933C65.6065 190.177 61.7666 189.971 58.4306 188.365C55.0946 186.759 52.5399 183.883 51.3384 180.381C48.7871 173.008 42.2128 167.768 34.458 166.921C30.775 166.527 27.4041 164.676 25.0953 161.782C22.7864 158.887 21.7331 155.188 22.1691 151.51C23.0689 143.761 19.4225 136.185 12.8012 132.058C9.65354 130.105 7.41967 126.974 6.59483 123.365C5.77174 119.755 6.42742 115.966 8.41541 112.841C12.5884 106.251 12.5884 97.8436 8.41541 91.2519C6.42742 88.1286 5.77174 84.3393 6.59483 80.7278C7.41967 77.118 9.65354 73.9878 12.8012 72.0364C19.4208 67.907 23.0689 60.3335 22.1708 52.5839C21.7349 48.9061 22.7882 45.2074 25.097 42.3126C27.4059 39.4161 30.7767 37.5659 34.4597 37.1718C42.2146 36.326 48.7889 31.084 51.3401 23.711C52.5416 20.2094 55.0964 17.3356 58.4323 15.7277C61.7683 14.1216 65.6083 13.9176 69.0959 15.161C76.4515 17.7628 84.6493 15.8934 90.1459 10.3567C92.7494 7.72348 96.2982 6.24122 100 6.24122C103.704 6.24122 107.253 7.72348 109.855 10.3567C115.353 15.8934 123.549 17.7628 130.905 15.161C134.392 13.9176 138.232 14.1216 141.568 15.7277C144.904 17.3356 147.459 20.2094 148.662 23.711C151.214 31.084 157.786 36.326 165.543 37.1718C169.224 37.5659 172.595 39.4161 174.904 42.3126C177.213 45.2074 178.268 48.9061 177.832 52.5839C176.93 60.3335 180.578 67.9088 187.199 72.0364C190.345 73.9878 192.581 77.118 193.404 80.7278C194.229 84.3393 193.573 88.1286 191.585 91.2519C187.411 97.8436 187.411 106.249 191.584 112.841ZM100 26.0286C58.0156 26.0286 23.9827 60.065 23.9827 102.048C23.9827 144.031 58.019 178.066 100.002 178.066C141.987 178.066 176.02 144.031 176.02 102.046C175.973 60.0824 141.964 26.0757 100 26.0286ZM100 171.817C61.4684 171.816 30.2326 140.58 30.2326 102.048C30.2326 63.516 61.4684 32.2803 100 32.2803C138.532 32.2785 169.77 63.5143 169.77 102.046C169.726 140.561 138.515 171.772 100 171.816V171.817Z" fill="#872991"/>
<path d="M135.781 125.997L130.675 119.615L128.104 122.83V120.15C129.597 119.618 130.675 118.203 130.675 116.529V95.9562C130.675 93.829 128.945 92.0986 126.818 92.0986H125.687C126.367 91.153 126.818 89.8985 126.818 88.2409C126.818 83.7686 123.437 81.4818 121.247 80.7297C120.362 77.1181 118.346 75.1874 117.563 74.5539C116.816 71.5589 114.644 70.43 114.534 70.3735L112.673 69.4436V71.5244C112.673 72.9578 111.633 74.115 110.075 75.1259C109.94 73.1198 108.283 71.5244 106.243 71.5244C104.205 71.5244 102.549 73.1173 102.413 75.1209C101.725 74.4905 100.819 74.0962 99.8141 74.0962C99.2509 74.0962 98.7216 74.223 98.2381 74.4409C97.366 71.0353 94.5563 68.407 91.0521 67.8055C91.5243 64.3641 92.6877 61.0389 94.4866 58.0402L92.2815 56.7173C90.2553 60.0965 88.9676 63.8499 88.4741 67.7333C87.4374 67.8545 86.458 68.1565 85.5576 68.6004C85.2556 66.4499 84.2824 64.4621 82.7196 62.9C80.8203 60.9981 78.2925 59.9515 75.6027 59.9515C73.8534 59.9515 72.1085 59.7367 70.4127 59.3123L65.8989 58.1846L66.9575 62.4177C67.4278 64.3001 67.667 66.2377 67.667 68.176C67.667 71.5075 68.9648 74.6387 71.3206 76.9944C72.4149 78.0888 73.7209 78.9616 75.1393 79.5857C72.4507 80.2694 70.5307 81.9101 70.2739 83.9199C68.5906 85.0877 67.667 86.5984 67.667 88.2409C67.667 89.7246 68.4411 91.0707 69.7452 92.1488C67.8522 92.3943 66.3811 93.9979 66.3811 95.9562V111.387C66.3811 113.061 67.4604 114.475 68.9529 115.008V119.616L63.8482 125.997C62.9943 127.064 62.5234 128.405 62.5234 129.772C62.5234 133.106 65.2358 135.819 68.5699 135.819H69.3377C71.2791 135.819 72.9907 134.882 74.0976 133.455C75.204 134.882 76.9155 135.819 78.8569 135.819H79.6248C81.5662 135.819 83.2778 134.882 84.3847 133.455C85.491 134.882 87.2026 135.819 89.144 135.819H89.9119C91.8533 135.819 93.5648 134.882 94.6718 133.455C95.7781 134.882 97.4897 135.819 99.4311 135.819H100.199C102.14 135.819 103.852 134.882 104.959 133.455C106.065 134.882 107.777 135.819 109.718 135.819H110.486C112.427 135.819 114.139 134.882 115.246 133.455C116.352 134.882 118.064 135.819 120.005 135.819H120.773C122.714 135.819 124.426 134.882 125.533 133.455C126.639 134.882 128.351 135.819 130.292 135.819H131.06C134.393 135.819 137.105 133.106 137.105 129.772C137.105 128.405 136.634 127.064 135.781 125.997ZM106.243 74.0962C106.952 74.0962 107.529 74.6732 107.529 75.3821C107.529 76.0903 106.952 76.6679 106.243 76.6679C105.535 76.6679 104.958 76.0903 104.958 75.3821C104.958 74.6732 105.535 74.0962 106.243 74.0962ZM99.8141 76.6679C100.523 76.6679 101.1 77.245 101.1 77.9538C101.1 78.6621 100.523 79.2397 99.8141 79.2397C99.1058 79.2397 98.5282 78.6621 98.5282 77.9538C98.5282 77.245 99.1058 76.6679 99.8141 76.6679ZM97.4344 80.9651C97.4445 80.9726 97.4533 80.9808 97.4627 80.9883C97.4382 81.004 97.4162 81.0191 97.3917 81.0335C97.4043 81.0116 97.4212 80.9896 97.4344 80.9651ZM104.793 80.4339C108.903 78.7908 113.124 77.1012 114.649 74.0729C114.98 74.6876 115.245 75.5346 115.245 76.6679C115.245 79.8889 111.821 84.3833 106.243 84.3833V86.955C112.21 86.955 116.595 82.8054 117.598 78.5089C118.371 79.7835 119.102 81.6928 119.102 84.3833C119.102 84.7355 119.069 85.084 119.002 85.4192L121.525 85.9184C121.624 85.418 121.674 84.9025 121.674 84.3833C121.674 84.1685 121.659 83.9676 121.651 83.7604C122.834 84.4781 124.246 85.8336 124.246 88.2409C124.246 91.8706 121.027 92.0904 120.388 92.0986H116.999C118.159 91.3024 119.297 90.3022 120.157 89.0703L118.048 87.5967C116.077 90.4165 112.014 91.8336 111.189 92.0986H98.7743C98.1584 91.8154 95.9564 90.5565 95.9564 86.955C95.9564 83.9676 100.448 82.1713 104.793 80.4339ZM88.2738 70.3654C88.2631 70.6793 88.2411 70.992 88.2411 71.3072V72.8103H90.8129V71.3072C90.8129 70.9957 90.8336 70.6868 90.8455 70.376C93.7589 70.987 95.9564 73.5738 95.9564 76.6679C95.9564 80.2129 93.0726 83.0974 89.527 83.0974C85.982 83.0974 83.0976 80.2129 83.0976 76.6679C83.0976 73.5518 85.3278 70.9505 88.2738 70.3654ZM87.1744 85.3464C87.9265 85.5505 88.712 85.6691 89.527 85.6691C91.1281 85.6691 92.6299 85.2447 93.934 84.5076C93.5831 85.2409 93.3846 86.0496 93.3846 86.955C93.3846 89.2769 94.0665 90.9307 94.911 92.0986H86.2225C87.4889 91.0299 88.2411 89.7013 88.2411 88.2409C88.2411 87.2043 87.8644 86.2242 87.1744 85.3464ZM81.1562 64.997C82.4063 66.3784 83.0976 68.1421 83.0976 70.0188V70.3811C82.1464 71.3543 81.4149 72.5428 80.9785 73.8645C80.5013 72.8888 79.9921 71.9332 79.4408 71.002L81.1562 64.997ZM75.6027 62.5232C76.7893 62.5232 77.9296 62.8033 78.9599 63.32L77.5842 68.1333C76.0836 66.0337 74.3639 64.0954 72.4752 62.3123C73.5131 62.4498 74.5573 62.5232 75.6027 62.5232ZM70.2387 68.176C70.2387 66.5416 70.0849 64.9098 69.7823 63.3024C72.0137 65.2708 73.9809 67.4866 75.673 69.8988L70.2865 69.1297C70.2557 68.8151 70.2387 68.4974 70.2387 68.176ZM73.1389 75.1774C72.1651 74.2042 71.426 73.0621 70.9344 71.8201L77.4775 72.755C78.5499 74.6217 79.4641 76.587 80.2125 78.6363L77.0078 77.5677C75.5575 77.0855 74.2201 76.2573 73.1389 75.1774ZM71.0273 86.6524C72.052 88.0777 74.0116 89.1331 76.5011 89.4389L76.8151 86.8866C74.3086 86.5783 72.8105 85.3722 72.8105 84.3833C72.8105 83.1689 75.0093 81.8115 77.954 81.8115C80.8988 81.8115 83.0976 83.1689 83.0976 84.3833C83.0976 85.3722 81.5995 86.5783 79.0936 86.8853L79.4076 89.4376C81.8971 89.1319 83.8554 88.0764 84.8814 86.6511C85.3736 87.1616 85.6693 87.706 85.6693 88.2409C85.6693 90.0655 82.5011 92.0986 77.954 92.0986C73.4076 92.0986 70.2387 90.0655 70.2387 88.2409C70.2387 87.7072 70.5345 87.1628 71.0273 86.6524ZM69.3365 133.247H68.5699C66.6542 133.247 65.0952 131.688 65.0952 129.772C65.0952 128.987 65.3652 128.216 65.8568 127.602L68.9529 123.733L72.0495 127.603C72.5405 128.216 72.8105 128.988 72.8105 129.772C72.8105 131.688 71.2521 133.247 69.3365 133.247ZM79.6236 133.247H78.8557C76.9413 133.247 75.3823 131.688 75.3823 129.772C75.3823 128.987 75.6523 128.216 76.1439 127.602L79.2399 123.733L82.3366 127.603C82.8276 128.216 83.0976 128.988 83.0976 129.772C83.0976 131.688 81.5392 133.247 79.6236 133.247ZM89.9106 133.247H89.1427C87.2284 133.247 85.6693 131.688 85.6693 129.772C85.6693 128.987 85.9393 128.216 86.431 127.602L89.527 123.733L92.6237 127.603C93.1147 128.216 93.3846 128.988 93.3846 129.772C93.3846 131.688 91.8263 133.247 89.9106 133.247ZM100.198 133.247H99.4298C97.5154 133.247 95.9564 131.688 95.9564 129.772C95.9564 128.987 96.2264 128.216 96.718 127.602L99.8141 123.733L102.911 127.603C103.402 128.216 103.672 128.988 103.672 129.772C103.672 131.688 102.113 133.247 100.198 133.247ZM110.485 133.247H109.717C107.802 133.247 106.243 131.688 106.243 129.772C106.243 128.987 106.513 128.216 107.005 127.602L110.101 123.733L113.198 127.603C113.689 128.216 113.959 128.988 113.959 129.772C113.959 131.688 112.4 133.247 110.485 133.247ZM120.772 133.247H120.004C118.09 133.247 116.531 131.688 116.531 129.772C116.531 128.987 116.801 128.216 117.292 127.602L120.388 123.733L123.485 127.603C123.976 128.216 124.246 128.988 124.246 129.772C124.246 131.688 122.687 133.247 120.772 133.247ZM125.532 126.055C125.518 126.037 125.507 126.015 125.493 125.997L120.388 119.615L115.284 125.996C115.269 126.014 115.259 126.036 115.245 126.053C115.231 126.036 115.22 126.014 115.206 125.996L110.101 119.615L104.997 125.996C104.982 126.014 104.972 126.036 104.958 126.053C104.944 126.036 104.933 126.014 104.919 125.996L99.8141 119.615L94.7095 125.996C94.695 126.014 94.685 126.036 94.6705 126.053C94.6567 126.036 94.646 126.014 94.6322 125.996L89.527 119.615L84.4224 125.996C84.4079 126.014 84.3979 126.036 84.3835 126.053C84.3696 126.036 84.359 126.014 84.3452 125.996L79.2399 119.615L74.1353 125.996C74.1209 126.014 74.1108 126.036 74.0964 126.053C74.0826 126.036 74.0719 126.014 74.0581 125.996L71.5246 122.831V115.008C73.0177 114.475 74.0964 113.061 74.0964 111.387V110.101H79.2399V115.244C79.2399 117.371 80.971 119.102 83.0976 119.102C85.2248 119.102 86.9552 117.371 86.9552 115.244V110.101H89.7637C90.2961 111.593 91.7107 112.673 93.3846 112.673C95.0592 112.673 96.4738 111.593 97.0062 110.101H103.672V113.959C103.672 116.085 105.403 117.816 107.529 117.816C109.657 117.816 111.387 116.085 111.387 113.959V110.101H122.96V116.53C122.96 118.204 124.039 119.619 125.532 120.151V126.055ZM79.2399 104.957V107.529H74.0964V104.957H79.2399ZM74.0964 102.386C74.0964 100.967 75.2498 99.8139 76.6682 99.8139C78.0865 99.8139 79.2399 100.967 79.2399 102.386H74.0964ZM89.527 104.957V107.529H86.9552V104.957H89.527ZM86.9552 102.386V101.1C86.9552 100.391 87.5329 99.8139 88.2411 99.8139C88.95 99.8139 89.527 100.391 89.527 101.1V102.386H86.9552ZM103.672 104.957V107.529H97.2423V104.957H103.672ZM97.3082 102.386C97.6065 100.92 98.9049 99.8139 100.457 99.8139C102.009 99.8139 103.308 100.92 103.606 102.386H97.3082ZM122.895 104.957C122.919 105.171 122.96 105.381 122.96 105.6V107.529H111.387V105.6C111.387 105.381 111.428 105.171 111.453 104.957H122.895ZM112.367 102.386C113.406 100.836 115.173 99.8139 117.174 99.8139C119.175 99.8139 120.941 100.836 121.98 102.386H112.367ZM125.532 116.53V105.6C125.532 100.992 121.782 97.2421 117.174 97.2421C112.565 97.2421 108.815 100.992 108.815 105.6V113.959C108.815 114.667 108.238 115.244 107.529 115.244C106.821 115.244 106.243 114.667 106.243 113.959V103.029C106.243 99.8383 103.647 97.2421 100.457 97.2421C97.2668 97.2421 94.6705 99.8383 94.6705 103.029V108.815C94.6705 109.523 94.0935 110.101 93.3846 110.101C92.6764 110.101 92.0988 109.523 92.0988 108.815V101.1C92.0988 98.9725 90.3683 97.2421 88.2411 97.2421C86.1145 97.2421 84.3835 98.9725 84.3835 101.1V115.244C84.3835 115.953 83.8064 116.53 83.0976 116.53C82.3893 116.53 81.8117 115.953 81.8117 115.244V102.386C81.8117 99.5489 79.5049 97.2421 76.6682 97.2421C73.8314 97.2421 71.5246 99.5489 71.5246 102.386V111.387C71.5246 112.095 70.9476 112.673 70.2387 112.673C69.5305 112.673 68.9529 112.095 68.9529 111.387V95.9562C68.9529 95.2473 69.5305 94.6703 70.2387 94.6703H126.818C127.526 94.6703 128.104 95.2473 128.104 95.9562V116.53C128.104 117.239 127.526 117.816 126.818 117.816C126.109 117.816 125.532 117.239 125.532 116.53ZM131.059 133.247H130.291C128.377 133.247 126.818 131.688 126.818 129.772C126.818 128.987 127.088 128.216 127.579 127.602L130.675 123.733L133.772 127.603C134.263 128.216 134.533 128.988 134.533 129.772C134.533 131.688 132.975 133.247 131.059 133.247Z" fill="#872991"/>
<path d="M129.39 128.104H131.961V130.675H129.39V128.104Z" fill="#872991"/>
<path d="M119.102 128.104H121.674V130.675H119.102V128.104Z" fill="#872991"/>
<path d="M108.815 128.104H111.387V130.675H108.815V128.104Z" fill="#872991"/>
<path d="M98.5283 128.104H101.1V130.675H98.5283V128.104Z" fill="#872991"/>
<path d="M88.2412 128.104H90.813V130.675H88.2412V128.104Z" fill="#872991"/>
<path d="M77.9541 128.104H80.5259V130.675H77.9541V128.104Z" fill="#872991"/>
<path d="M67.667 128.104H70.2388V130.675H67.667V128.104Z" fill="#872991"/>
</svg>
